<?xml version="1.0" encoding="iso-8859-1"?>
<!-- Generator: Adobe Illustrator 19.1.0, SVG Export Plug-In . SVG Version: 6.00 Build 0)  -->
<svg version="1.1" id="Ebene_1" xmlns="http://www.w3.org/2000/svg" xmlns:xlink="http://www.w3.org/1999/xlink" x="0px" y="0px"
	 viewBox="0 0 637.468 521.975" style="enable-background:new 0 0 637.468 521.975;" xml:space="preserve">
<rect style="fill:#008555;" width="637.468" height="522.415"/>
<g>
	<path style="fill:#FFFFFF;" d="M39.498,443.219l0.927,0.362c0.042-0.11,0.097-0.208,0.193-0.265
		C40.507,443.076,39.986,443.311,39.498,443.219z"/>
	<path style="fill:#FFFFFF;" d="M252.934,477.118l-8.731-0.652l3.105-41.642l7.037,0.522l1.196-16.09l-39.678-2.954l-1.199,16.087
		l6.722,0.503l-3.1,41.645l-6.54-0.485l-0.157,2.196c0.118-0.185,0.229-0.381,0.216-0.692c0.624,0.125,0.835,0.664,1.502,0.752
		c-0.329,1.055-1.097,0.096-1.722,0.006l-1.015,14.15l6.799,0.507c0.291-0.071,0.551-0.103,0.724,0.053l10.873,0.811
		c0.028-0.015,0.057-0.022,0.084-0.038c0.01-0.423-0.185-0.643-0.498-0.746c0.307-0.441,1.336,0.217,1.47,0.862l38.741,2.884
		l0.468-6.291c-0.459,0.166-1.014,0.1-0.944-0.453c0.212-0.209,0.579-0.263,0.998-0.264l1.891-25.401l-13.072-0.97L252.934,477.118z
		 M221.802,462.561c-0.935-0.27-0.713,0.619-1.499,0.498c-0.103-1.314,0.847-0.627,1.247-0.998c0.206-0.867-0.368-0.961-0.249-1.75
		c0.952-0.368,0.05,1.117,1.004,0.749C222.158,461.583,221.683,461.775,221.802,462.561z M227.55,453.811
		c-0.256-0.703-0.284-1.065,0.75-0.998C228.369,453.467,228.208,453.886,227.55,453.811z M228.3,430.32h1.002
		C229.591,431.188,227.905,431.485,228.3,430.32z M229.55,490.051c-0.197-0.225-0.27-0.568-0.248-1.002
		c0.76,0.07,1.703-0.041,1.75,0.75C230.438,489.168,230.518,490.325,229.55,490.051z M237.046,487.299
		c-0.291-0.21-0.669-0.329-1.252-0.249C235.707,485.826,237.293,486.291,237.046,487.299z M237.046,462.309v-1.249
		C237.817,460.674,237.817,462.69,237.046,462.309z M240.295,477.803c-0.389-0.889,0.849-0.151,0.751-0.747
		C242,477.287,241.23,478.06,240.295,477.803z M255.538,484.799c0.398-0.441,0.895-1.532,1.502-0.998
		C256.475,484.072,256.577,485.004,255.538,484.799z"/>
	<path style="fill:#FFFFFF;" d="M185.189,69.66l5.565,25.916c0.131,0.004,0.27-0.033,0.425-0.151
		c-0.17,0.671,0.518,0.482,0.755,0.747c-0.235,0.432-0.585,0.501-0.95,0.469l2.967,13.821l-7.079,1.52l3.455,16.079l36.924-7.928
		c-0.011-0.039-0.013-0.077-0.03-0.115c0.201-0.056,0.324-0.031,0.404,0.035l1.983-0.426l-3.452-16.078l-6.898,1.48l-2.732-12.718
		l9.048-1.945l-3.423-15.945l-9.048,1.942l-2.607-12.137l9.139-1.963l5.855,13.316l12.719-2.733l-6.385-29.737l-12.575,2.7
		c0.376,0.109,0.773,0.198,1.227,0.233c-0.301,0.416-1.399,0.317-1.823-0.105l-43.933,9.433l3.398,15.812L185.189,69.66z
		 M219.22,106.521h1.255c-0.221,0.697-1.003,0.828-1.75,1.003C218.727,107.025,219.404,107.205,219.22,106.521z M223.221,85.279
		c-0.431,0.884-0.407-0.721-1.249-0.246c-0.077-0.583,0.04-0.963,0.251-1.252C222.576,84.258,222.624,85.046,223.221,85.279z
		 M222.472,76.782c-0.683-0.562-1.781-0.719-2.251-1.499C221.182,75.574,222.265,75.737,222.472,76.782z M220.971,83.529
		c-0.011,0.429,0.185,0.646,0.502,0.752c-0.41,0.714-1.359-0.123-1.75-0.252C219.934,83.66,220.354,83.49,220.971,83.529z
		 M229.969,67.286c-0.128,0.669-1.695,1.693-1.75,0.249C229.316,67.822,229.039,67.533,229.969,67.286z M225.469,74.285
		c0.026-0.637,0.932-0.594,1.251-0.252C226.695,74.669,225.784,74.626,225.469,74.285z M224.471,57.039
		c0.966,1.01,0.308,2.157,1.75,2.75c-0.646,0.626-1.136-1.019-2.001-1.001C224.075,57.977,224.392,57.625,224.471,57.039z
		 M223.224,55.041c0.021-0.354,0.041-0.708-0.252-0.752c0.041-0.618,0.848-0.068,1.002,0
		C223.703,54.525,223.896,55.213,223.224,55.041z M223.471,45.545c0.544-0.043,0.115,0.885,0.251,1.25
		C222.7,46.929,222.875,45.715,223.471,45.545z M222.972,53.54c-0.317-0.347-1.18-0.151-1.499-0.498
		C221.624,52.146,223.069,52.711,222.972,53.54z M207.673,116.665c0.48,0.21,0.678,1.096,0.255,1.499
		C207.23,117.916,207.605,117.156,207.673,116.665z M207.23,65.787c0.765,0.465-0.292,1.188-1.003,0.998
		C205.987,65.88,207.348,66.575,207.23,65.787z M204.73,67.286c-0.249,0.473-1.525-0.123-1.499-0.752
		C203.99,66.524,204.2,67.065,204.73,67.286z M196.73,121.765c-0.464,0.37-0.662,1.001-1.498,1.001
		c0.068-0.375,1.075-1.052,0.501-1.25C195.979,120.748,196.399,121.803,196.73,121.765z M194.73,104.271
		c1.018,0.088-0.01,0.657,0.501,1.253C194.351,105.437,194.587,104.866,194.73,104.271z M193.678,96.672
		c0.132,0.602-0.695,0.668,0,1.751c-0.6,0.1-0.544-0.457-1.249-0.249c-0.172-0.77-0.172-0.48,0-1.25
		c-0.359,0.141-0.608,0.388-0.747,0.75c-0.716-0.34,0.662-0.637,0.499-1.251C192.5,96.546,193.674,97.055,193.678,96.672z
		 M192.68,62.436c0.044-0.213-0.1-0.236-0.251-0.249c0.511-0.657,0.869,0.526,0.5,0.998c-0.2-0.133-0.405-0.259-0.748-0.249
		C192.087,62.51,192.375,62.466,192.68,62.436z M189.733,71.285c-0.268,0.648-1.717,1.09-1.75,0
		C188.54,71.864,188.958,71.2,189.733,71.285z"/>
	<path style="fill:#FFFFFF;" d="M150.449,421.644l7.134,1.249l-7.217,41.133l-7.136-1.252l-2.843,16.207l57.745,10.135l5.442-31.016
		l-12.324-2.163l-2.629,6.124h0.441c0.066,0.9,0.063,1.727-0.998,1.498c-0.014-0.058-0.015-0.103-0.02-0.151l-1.753,4.086
		l-1.07,2.648l-9.889-1.731l2.191-12.51l9.258,1.627l2.79-15.899l-9.258-1.619l2.235-12.732l9.619,1.689l1.037,14.236l12.109,2.079
		l5.179-29.528l-57.249-10.047L150.449,421.644z M155.078,452.061c0.76-0.01,0.97,0.531,1.499,0.752
		C156.328,453.283,155.054,452.69,155.078,452.061z M199.309,470.558c0.693-0.107,0.236,0.93,0.75,0.998
		C199.578,472.416,199.038,471.273,199.309,470.558z M194.31,485.051c0.965-0.198,0.965,1.197,0,0.998V485.051z M171.57,469.557
		c0.21-0.373,0.632-0.536,1.247-0.5c-0.01,0.428,0.188,0.646,0.503,0.752C172.91,470.52,171.966,469.686,171.57,469.557z
		 M172.071,460.81c0.956,0.29,2.039,0.454,2.251,1.499C173.636,461.744,172.538,461.591,172.071,460.81z M173.821,470.558
		c-0.081-0.58,0.038-0.96,0.249-1.25c0.355,0.478,0.403,1.263,0.999,1.499C174.64,471.69,174.66,470.085,173.821,470.558z
		 M181.816,452.813c-0.129,0.671-1.694,1.695-1.75,0.249C181.164,453.35,180.887,453.059,181.816,452.813z M176.321,442.565
		c0.963,1.012,0.306,2.156,1.748,2.752c-0.645,0.623-1.135-1.022-2.003-1.002C175.924,443.504,176.239,443.152,176.321,442.565z
		 M175.071,440.568c0.02-0.354,0.041-0.709-0.252-0.753c0.042-0.618,0.847-0.068,1.001,0
		C175.551,440.05,175.743,440.74,175.071,440.568z M175.318,431.069c0.544-0.041,0.115,0.889,0.251,1.253
		C174.547,432.455,174.723,431.241,175.318,431.069z M174.819,439.067c-0.317-0.347-1.18-0.151-1.499-0.501
		C173.472,437.674,174.918,438.235,174.819,439.067z M172.32,431.57c-0.38,0.525-2.054,0.236-1.997-0.501
		C170.908,431.319,171.545,431.506,172.32,431.57z M159.076,451.314c0.766,0.465-0.289,1.189-1,0.999
		C157.834,451.406,159.195,452.102,159.076,451.314z"/>
	<path style="fill:#FFFFFF;" d="M97.348,440.316c0.003-0.493,0.683-0.317,0.498-0.998c-0.315-0.016-0.344-0.321-0.747-0.251
		C97.235,439.429,96.807,440.36,97.348,440.316z"/>
	<path style="fill:#FFFFFF;" d="M149.391,406.305l-27.795-10.865l-5.892,15.07c2.107,0.826,3.431,1.547,3.975,2.169
		c0.545,0.623,0.397,1.493-0.431,2.612l-13.144,17.745c-0.005,1.364-0.092,2.642-0.508,3.534c-0.58-1.024-0.162-2.533-1.498-2.254
		c0.243-0.4,0.664-0.572,0.997-0.247c0.143-1.391-0.115-2.386-0.752-2.997c-0.169-0.672,0.518-0.484,0.752-0.752
		c0.173-1.004-0.237-1.428-0.249-2.248c-0.97-0.278-0.888,0.885-1.501,0.251c0.9-1.58,1.25-0.639,2-2.253
		c0.313-0.025,0.491,0.288,0.624,0.596l3.759-35.867l-17.462-6.832l-26.974,36.263l3.192-28.183l6.021,2.35l5.894-15.064
		l-36.758-14.373l-5.934,15.053l6.145,2.4l-5.026,47.89c0.148,0.306,0.316,0.58,0.545,0.771c0.077,0.577-0.042,0.955-0.246,1.247
		c0.38,1.286,1.519,3.134,1.244,4.251c1.317,0.516,0.049,3.618,2.245,3.249c0.099,0.426-0.189,0.469-0.495,0.497
		c0.358,1.446,0.759,2.913,1.161,4.381l17.198,6.725l20.408-26.768l-3.547,33.361l1.097,0.428c0.323-0.359,1.374,0.007,1.916-0.136
		c-0.405,0.722-0.861,0.325-1.607,0.257l15.166,5.932c-0.197-0.56-0.457-1.047-1.309-1.185c-0.105-0.602,0.455-0.545,0.246-1.25
		c-0.259-0.316-0.991-0.236-1.25,0.497c-0.774-0.708,1.032-0.952,0.501-2.245c-0.705-0.208-0.649,0.35-1.25,0.246
		c0.806-0.501,2.12-2.4,1.001-3.249c0.938-0.713,0.277-1.666,1.748-2c0.038,0.624-0.394,0.776-0.495,1.253
		c0.192,0.2,1.205,0.025,1.744,0.497c-0.328,0.778,0.069,0.717,0,1.751c0.491-2.515,0.496-9.08,1.751-11.246
		c-1.114-0.574,0.3-1.039,0.247-1.999c-0.684-0.234-0.581-1.245-0.996-1.748c0.038-0.547,0.628-0.539,1.249-0.501
		c-0.107-0.56-0.441-0.891-1-1c0.484-0.897-0.098-0.914-0.249-1.751h0.749c-0.539-2.374,0.148-3.903,0.247-6.246
		c1.261,0.179,1.4-0.768,2.75-0.501c0.186,0.686-0.495,0.503-0.497,1.001c1.214,0.131,0.811-1.351,1.246-1.999
		c-0.21-0.734-0.628,0.326-1.246,0c-0.101-2.659-1.096-5.382,1-6.748c-0.032,0.449,0.303,0.529,0.246,1.002
		c-1.038-0.521-0.936,1.362-0.497,1.498c0.047-0.728,0.441-0.601,0.998-1.253c0.087-0.499-0.054-0.78-0.501-0.746
		c0.699-0.598,1.267-1.455,0.501-2.251h0.999c-0.476,1.221,0.418,1.311,0,1.75c-0.955,1.004,0.185,2.061,0,3.748
		c-0.17,1.643-1.556,2.934-1.247,4.249c0.163,0.75,0.533-0.238,1,0c-0.315,1.428-0.893,2.041-0.503,3.499
		c-0.243-0.008-0.189-0.305-0.249-0.498c-1.184,2.322-0.256,5.6-1.747,6.747c0.109-0.806,0.477-1.355,0.497-2.251
		c-0.8,0.362-0.657,1.68-0.996,2.498c-0.043,0.543,0.884,0.112,1.248,0.25c0.105,0.404-0.929,0.84-0.998,0.249
		c-1.153,2.382-0.668,7.736-2.004,11.748c0.112,0.308,0.323,0.513,0.754,0.5c0.673-0.975,0.397-2.861,0.749-4.001
		c0.996,0.711-0.341,2.841-0.248,4.249c-0.604-0.102-0.548,0.458-1.255,0.25c0.051,1.247-0.57,2.606,0.502,3.249
		c0.105-0.375-0.023-2.079,0.498-2.749c1.093,1.704-1.304,4.343-0.498,6c-0.199-0.136-0.405-0.261-0.749-0.253
		c-0.341,1.094,0.968,0.533,0.749,1.501c-0.567-0.159-0.865,0.028-1.015,0.386l4.187,1.637l32.869-43.648
		c1.358-1.802,2.784-2.826,4.279-3.079c1.495-0.252,3.439,0.087,5.825,1.026L149.391,406.305z M81.103,457.064
		c-0.78,0.032-0.854-0.643-0.996-1.253C80.245,456.424,81.376,456.037,81.103,457.064z M98.6,452.061
		c-0.601-0.452-0.144-1.955,0-2.497C99.515,450.079,98.685,451.152,98.6,452.061z M102.846,424.571v-0.249h1.75
		c-0.159,0.514-1.263,0.071-1.001,1.001C103.02,425.4,103.317,424.6,102.846,424.571z M105.346,439.819
		c-0.427,0.091-0.473-0.198-0.499-0.503c-0.257,0.164-0.261,0.574-0.748,0.503c0.641-0.778,0.604-1.099,1.498-1.253
		C105.386,438.859,105.269,439.239,105.346,439.819z M106.095,446.315c-0.741-1.315-0.167-2.461-0.252-4.25
		C106.71,442.706,106.378,445.291,106.095,446.315z M106.095,440.316c-0.555-0.03-0.106-1.057-0.252-1.499
		c0.452,0.032,0.529-0.306,1-0.251C106.818,439.377,105.715,439.103,106.095,440.316z M113.595,449.566
		c-0.792,0.118-0.19-1.15-0.751-1.253c0.392-0.913,0.373,0.583,0.996,0.252C113.647,448.786,113.573,449.13,113.595,449.566z
		 M113.34,446.813c0.562,0.113,0.896,0.443,1.003,1.004C113.561,447.932,113.224,447.598,113.34,446.813z M118.589,436.069
		c-1.343-0.236,0.102-2.147-1.497-1.253c0.443-1.137,2.266-0.741,2.245,0.504C118.981,435.459,118.731,435.707,118.589,436.069z
		 M124.588,434.816c-1.376-0.808,0.323-2.598,0-3.996C126.69,431.772,123.648,433.489,124.588,434.816z M124.838,426.822
		c0.03-0.637,0.364-0.968,1.001-0.998C125.806,426.46,125.477,426.791,124.838,426.822z M128.085,425.323
		c-0.182-0.683,0.497-0.503,0.502-1.001h0.501C129.203,425.105,128.867,425.439,128.085,425.323z"/>
	<path style="fill:#FFFFFF;" d="M99.596,435.568c0.271,0.766-0.478,2.27-0.497,2.998
		C100.078,438.638,100.374,434.861,99.596,435.568z"/>
	<path style="fill:#FFFFFF;" d="M99.099,430.071c0.654,0.893,0.24,1.476,1.246,1.751C100.401,430.764,99.878,430.289,99.099,430.071
		z"/>
	<path style="fill:#FFFFFF;" d="M327.078,89.399c0.91-0.333,1.851-0.633,2.854-0.87c-0.912,0.41-1.826,0.816-2.761,1.202
		c0.954,3.039,2.241,5.793,3.886,8.245c2.111,3.151,4.697,5.907,7.761,8.262c3.064,2.35,6.514,4.219,10.358,5.592
		c3.845,1.372,7.974,2.232,12.389,2.582c7.609,0.598,13.779-0.909,18.504-4.52l1.558,4.766l12.602,0.988l3.095-39.365l-28.542-2.242
		l-1.091,13.884l7.304,0.616c0.17,0.905,0.194,2.148,0.072,3.729c-0.172,2.225-1.182,3.913-3.019,5.071
		c-1.835,1.157-3.913,1.645-6.227,1.463c-9.588-0.756-13.853-7.846-12.801-21.269c0.149-1.92,0.348-3.676,0.595-5.262
		c0.249-1.588,0.617-3.339,1.103-5.243c0.488-1.906,1.132-3.572,1.931-4.996c0.806-1.422,1.77-2.731,2.907-3.93
		c1.135-1.196,2.552-2.071,4.253-2.631c1.693-0.555,3.608-0.747,5.741-0.583c1.916,0.151,3.575,0.567,4.981,1.242
		c1.401,0.681,2.499,1.486,3.301,2.423c0.8,0.935,1.447,2.141,1.945,3.622c0.495,1.478,0.834,2.882,1.024,4.213
		c0.182,1.333,0.31,2.937,0.376,4.811l10.903,0.855c0.054-0.328,0.233-0.589,0.555-0.43v0.473l1.693,0.134l2.438-30.961l-0.02-0.001
		c-0.228,0.055-0.445,0.097-0.615,0.116c0.03-0.059,0.076-0.107,0.119-0.155l-13.872-1.094l-2.23,2.677
		c-3.678-3.076-8.639-4.864-14.883-5.354c-5.813-0.454-11.154,0.164-16.02,1.865c-4.866,1.703-8.949,4.231-12.244,7.584
		c-3.298,3.357-5.932,7.33-7.902,11.925c-1.966,4.594-3.162,9.599-3.588,15.016c-0.37,4.691-0.067,9.094,0.913,13.216
		C326.617,87.867,326.847,88.635,327.078,89.399z M379.143,84.868c-0.785,0.288-0.605-0.39-1.001-0.497
		C378.244,83.819,379.61,84.037,379.143,84.868z M353.9,106.86c1.24,0.325,1.23-0.603,2.252-0.497
		C356.266,107.513,354.127,108.224,353.9,106.86z M353.925,101.273c-0.162-0.543,0.708-0.795-0.252-0.749
		C353.94,99.183,355.513,101.421,353.925,101.273z M392.638,46.636c0.293,0.21,0.669,0.329,1.252,0.249
		C393.977,48.109,392.394,47.645,392.638,46.636z M389.389,56.132c0.392,0.889-0.849,0.151-0.75,0.747
		C387.684,56.647,388.453,55.875,389.389,56.132z M374.146,49.135c-0.398,0.442-0.896,1.533-1.502,1
		C373.209,49.86,373.108,48.931,374.146,49.135z M361.4,45.884c-0.298,0.288-0.883,0.283-1.501,0.249
		C359.66,45.43,361.523,44.9,361.4,45.884z M349.905,88.369c0.046-0.703,0.431-1.063,1.247-1
		C350.835,87.8,350.637,88.354,349.905,88.369z M352.405,88.87c-0.594-0.077-0.467-0.87-1.253-0.749
		C351.488,87.484,352.787,87.959,352.405,88.87z M354.401,57.382c-1.955,1.045-4.075,1.922-6.498,2.497
		C349.973,58.947,352.031,58.013,354.401,57.382z"/>
	<path style="fill:#FFFFFF;" d="M533.086,85.121c-0.159-1.72,1.455-3.108,0-3.75C533.271,82.787,531.951,84.193,533.086,85.121z"/>
	<path style="fill:#FFFFFF;" d="M531.838,94.616c0.318,0.017,0.345,0.321,0.749,0.251c-0.138-0.361,0.291-1.293-0.251-1.249
		C532.334,94.111,531.655,93.936,531.838,94.616z"/>
	<path style="fill:#FFFFFF;" d="M530.587,103.863c-0.656-0.893-0.24-1.477-1.248-1.751
		C529.282,103.171,529.809,103.646,530.587,103.863z"/>
	<path style="fill:#FFFFFF;" d="M530.088,98.366c-0.271-0.766,0.478-2.269,0.499-2.998
		C529.606,95.297,529.313,99.074,530.088,98.366z"/>
	<path style="fill:#FFFFFF;" d="M251.763,56.72l1.843,25.862c0.192,2.68,0.482,5.153,0.875,7.422c0.393,2.27,0.968,4.54,1.728,6.813
		c0.76,2.273,1.676,4.306,2.754,6.096c1.078,1.79,2.42,3.457,4.032,4.994c1.266,1.211,2.673,2.234,4.212,3.086
		c-0.03-0.605,0.966-0.183,0.75-0.972c0.554-0.138,0.355,0.477,0.748,0.501c-0.025,0.469-0.823,0.172-0.748,0.749
		c-0.179-0.117-0.381-0.222-0.666-0.233c0.389,0.212,0.777,0.421,1.184,0.611c2.046,0.956,4.442,1.648,7.198,2.081
		c2.754,0.429,5.795,0.525,9.114,0.287c5.207-0.372,9.993-1.753,14.354-4.145c4.36-2.396,7.799-5.634,10.327-9.718
		c2.525-4.083,3.614-8.53,3.271-13.345l-2.446-34.271l7.037-0.503l-1.147-16.082l-29.884,2.134l1.149,16.084l7.495-0.537
		l2.391,33.539c0.193,2.682-0.446,4.856-1.92,6.521c-1.473,1.665-3.61,2.602-6.415,2.8c-1.584,0.113-2.985-0.123-4.208-0.709
		c-1.218-0.584-2.184-1.429-2.887-2.527c-0.708-1.096-1.253-2.292-1.637-3.58c-0.38-1.289-0.627-2.68-0.731-4.171l-2.188-30.615
		l6.764-0.482l-1.149-16.084l-39.709,2.836l1.151,16.083L251.763,56.72z M309.94,69.285c-0.629-0.467,0.416-0.028,0.749,0
		c0.061,0.729-0.473,0.862-0.749,1.252c-0.766-0.248,0.284-0.669,0.248-1.002C310.233,69.321,310.088,69.299,309.94,69.285z
		 M305.192,98.273c-0.565,0.275-0.463,1.204-1.502,0.998C304.089,98.831,304.586,97.74,305.192,98.273z M298.693,63.539
		c0.785-0.287,0.605,0.39,1.001,0.498C299.592,64.589,298.227,64.371,298.693,63.539z M285.2,101.772
		c-0.294-0.212-0.671-0.329-1.253-0.25C283.859,100.298,285.442,100.763,285.2,101.772z M281.701,107.02
		c-0.342,0.663-1.466,0.534-2,1.002C279.28,107.585,280.943,107.112,281.701,107.02z M276.452,109.771
		c-0.569,0.331-1.657,0.968-2.251,0.498c0.244-0.76,1.455-0.545,2-0.999c-0.287-0.369-0.287-0.631,0-1
		c0.333,0.163,0.467,0.536,0.5,1C276.191,109.133,276.108,109.746,276.452,109.771z M279.204,104.271
		c-0.616-0.634-0.534,0.528-1.504,0.251c-0.195-0.223-0.267-0.566-0.246-1C278.211,103.594,279.157,103.484,279.204,104.271z
		 M276.452,44.793h0.999C277.743,45.66,276.058,45.959,276.452,44.793z M276.452,67.286c0.066,0.654-0.093,1.075-0.75,0.998
		C275.446,67.581,275.415,67.22,276.452,67.286z M277.202,106.269c0.01-0.425-0.185-0.645-0.501-0.747
		c0.329-0.472,1.501,0.316,1.499,0.999c-1.994-0.162-2.738,0.928-4.247,1.251c0.359-0.44,0.23-0.569-0.504-0.503
		C274.338,106.587,275.902,107,277.202,106.269z M273.7,111.271c-0.31,1.028-0.723-0.095-1.246-0.249
		C272.703,110.318,273.609,110.994,273.7,111.271z M269.153,50.439C272.997,48.379,269.733,54.448,269.153,50.439L269.153,50.439z
		 M269.703,76.535c0.202-0.866-0.37-0.961-0.25-1.75c0.953-0.369,0.049,1.116,1.002,0.746c-0.144,0.523-0.618,0.717-0.501,1.502
		c-0.934-0.267-0.713,0.618-1.499,0.501C268.353,76.221,269.302,76.905,269.703,76.535z M265.206,105.521
		c0.596-0.146,1.16-0.383,1.247,0.5C265.982,105.911,264.949,106.361,265.206,105.521z M259.958,90.027
		c0.623,0.126,0.834,0.665,1.501,0.752c-0.334,1.073-1.118,0.065-1.75,0C259.84,90.577,259.97,90.371,259.958,90.027z"/>
	<path style="fill:#FFFFFF;" d="M465.073,99.689l-12.18-2.848l-5.596,11.251l-1.211,2.588l-9.772-2.287l2.89-12.354l9.146,2.14
		l3.67-15.701l-9.145-2.139l2.943-12.578l9.502,2.223l0.238,14.263l11.965,2.753l6.824-29.173l-38.975-9.117v0.176
		c-0.392,0.08-0.616-0.105-0.689-0.337l-16.893-3.952l-3.684,15.745l7.047,1.647l-9.508,40.635l-7.045-1.646l-3.748,16.012
		l57.049,13.343L465.073,99.689z M455.365,71.626c0.685,0.562,1.783,0.719,2.251,1.499
		C456.656,72.834,455.573,72.671,455.365,71.626z M458.113,64.379c-0.21,0.371-0.631,0.535-1.247,0.499
		c0.01-0.428-0.186-0.646-0.503-0.751C456.773,63.413,457.723,64.25,458.113,64.379z M455.864,63.375
		c0.077,0.582-0.04,0.962-0.251,1.252c-0.354-0.477-0.399-1.265-0.998-1.498C455.046,62.245,455.023,63.85,455.864,63.375z
		 M441.618,70.376c0.186,0.765-0.428,0.737-0.248,1.499h-0.75C440.554,70.974,440.558,70.147,441.618,70.376z M417.881,58.381
		c-0.626-0.126-0.837-0.665-1.504-0.752c0.334-1.073,1.119-0.064,1.75,0C417.999,57.831,417.866,58.037,417.881,58.381z
		 M430.375,63.377c-0.693,0.107-0.233-0.93-0.75-0.998C430.108,61.519,430.647,62.658,430.375,63.377z M454.366,102.862
		c-0.545,0.044-0.116-0.886-0.252-1.249C455.137,101.479,454.961,102.693,454.366,102.862z M459.363,102.862
		c-0.588-0.247-1.225-0.437-2-0.497C457.743,101.839,459.417,102.129,459.363,102.862z"/>
	<path style="fill:#FFFFFF;" d="M470.925,117.096l-6.221,15.222l54.229,22.176l11.908-29.13l-11.573-4.732l-7.3,10.228l-1.612,2.358
		l-9.282-3.793l4.802-11.744l8.691,3.552l6.104-14.925l-8.692-3.555l4.886-11.957l8.35,3.412c0.085-0.068,0.19-0.119,0.372-0.092
		c-0.054,0.067-0.099,0.125-0.145,0.185l0.458,0.187l-0.734,5.154c0.116,0.016,0.255,0.009,0.421-0.026
		c-0.124,0.206-0.294,0.349-0.475,0.399l-0.289,2.026c0.129,0.316,0.29,0.603,0.518,0.821c0.167,0.663-0.5,0.491-0.741,0.745
		l-0.016,0.113c-0.121,0.92,0.244,1.354,0.254,2.14c0.97,0.28,0.889-0.883,1.501-0.249c-0.897,1.58-1.25,0.639-1.996,2.253
		c-0.134,0.011-0.241-0.043-0.333-0.126l-0.124,0.873l1.71,0.692c0.324-0.072,0.651-0.14,0.494-0.692
		c0.578-0.076,0.277,0.724,0.75,0.752v0.249h-0.482l8.907,3.604l11.341-27.731l-12.315-5.035c-0.222,2.371-0.535,4.769-1.204,5.922
		c1.113,0.574-0.301,1.039-0.247,1.998c0.683,0.234,0.585,1.245,0.996,1.748c-0.036,0.547-0.629,0.539-1.248,0.501
		c0.109,0.558,0.442,0.888,1.002,0.998c-0.488,0.898,0.098,0.917,0.246,1.75h-0.749c0.541,2.377-0.149,3.907-0.247,6.249
		c-1.262-0.179-1.401,0.767-2.751,0.501c-0.182-0.685,0.495-0.505,0.499-1.001c-1.215-0.131-0.813,1.35-1.248,1.999
		c0.21,0.735,0.63-0.325,1.248,0c0.099,2.659,1.095,5.382-1,6.748c0.031-0.449-0.305-0.529-0.248-1.002
		c1.039,0.519,0.936-1.362,0.497-1.497c-0.046,0.728-0.442,0.598-0.998,1.248c-0.085,0.504,0.054,0.784,0.501,0.75
		c-0.699,0.598-1.266,1.455-0.501,2.251h-0.999c0.477-1.222-0.418-1.312,0-1.75c0.956-1.004-0.184-2.062,0-3.747
		c0.17-1.643,1.556-2.934,1.248-4.25c-0.164-0.75-0.534,0.238-1.001,0c0.316-1.428,0.893-2.041,0.503-3.499
		c0.244,0.008,0.189,0.306,0.249,0.499c1.186-2.323,0.26-5.601,1.749-6.748c-0.111,0.806-0.479,1.355-0.499,2.251
		c0.804-0.362,0.657-1.679,0.996-2.497c0.043-0.544-0.883-0.115-1.248-0.251c-0.104-0.403,0.929-0.841,1.001-0.249
		c0.965-1.999,0.784-6.089,1.489-9.725l-0.756-0.309c-0.047,0.646-0.081,1.288-0.233,1.786c-0.517-0.369-0.403-1.124-0.189-1.959
		l-38.31-15.663l-6.118,14.969l6.701,2.738l-15.797,38.626L470.925,117.096z M531.086,81.874c0.599,0.452,0.142,1.956,0,2.497
		C530.171,83.855,530.999,82.783,531.086,81.874z M523.59,87.62c0.744,1.314,0.166,2.461,0.251,4.248
		C522.974,91.229,523.308,88.645,523.59,87.62z M516.345,87.12c-0.56-0.11-0.893-0.442-1.004-1.001
		C516.123,86.004,516.46,86.337,516.345,87.12z M516.842,85.621c-0.392,0.914-0.372-0.583-0.998-0.252
		c0.196-0.221,0.267-0.564,0.247-1C516.881,84.25,516.28,85.519,516.842,85.621z M513.596,80.124
		c0.329-0.255,0.919-0.247,1.25-0.501c0.782-0.121,0.657,0.673,1.245,0.75c-0.72,0.264-1.879-0.211-1.998,0.749
		C513.654,81.063,513.526,80.69,513.596,80.124z M515.092,83.621c-0.069,0.76-1.319,0.344-1.496,0.998
		C513.205,84.42,514.488,82.882,515.092,83.621z M511.096,97.865c1.342,0.236-0.103,2.148,1.499,1.25
		c-0.446,1.14-2.269,0.744-2.248-0.5C510.706,98.476,510.952,98.225,511.096,97.865z M508.599,86.622
		c0.265,2.683-1.137,5.861-1.753,8.495C506.12,92.92,508.227,89.375,508.599,86.622z M488.103,77.126
		c0.269-0.649,1.716-1.091,1.75,0C489.296,76.544,488.878,77.208,488.103,77.126z M503.849,108.111c0.03-0.637,0.359-0.969,1-0.999
		C504.816,107.749,504.482,108.08,503.849,108.111z M505.096,103.114c-2.102-0.955,0.939-2.669,0-3.996
		C506.472,99.926,504.772,101.716,505.096,103.114z M504.346,80.621c0.093,0.76-0.816,0.521-1.25,0.752
		c0.142,0.444,0.129,1.034,0.501,1.248c-0.247,1.059-0.673-0.881-0.75,0c-0.564-0.104,0.039-1.368-0.749-1.248
		C502.257,80.532,503.297,80.57,504.346,80.621z M501.6,108.611c0.181,0.684-0.498,0.504-0.503,1.001h-0.5
		C500.48,108.83,500.816,108.496,501.6,108.611z M499.847,101.863c1.348,0.285-0.473,1.439,0.254,1.752
		c-0.082,0.338-0.626,0.204-1,0.251C499.087,102.937,499.482,102.416,499.847,101.863z"/>
	<path style="fill:#FFFFFF;" d="M548.712,135.344c0.576,1.376,1.194,2.641,1.851,3.801c0.657,1.158,1.484,2.41,2.475,3.758
		c0.991,1.352,1.946,2.58,2.869,3.688c0.928,1.109,2.011,2.367,3.257,3.766c0.788,0.862,1.419,1.641,1.887,2.333
		c0.468,0.693,0.78,1.534,0.95,2.525c0.164,0.99-0.026,1.925-0.583,2.803c-0.67,1.06-1.606,1.61-2.813,1.663
		c-1.207,0.051-2.379-0.285-3.512-1.004c-1.886-1.19-3.241-3.049-4.06-5.576c-0.824-2.528-0.977-4.944-0.454-7.254l-12.466-7.887
		l-12.686,20.055l12.504,7.913l3.644-2.683c0.938,2.977,2.102,5.402,3.496,7.283c1.4,1.877,3.495,3.693,6.279,5.457
		c2.709,1.717,5.616,2.731,8.719,3.051c3.108,0.321,6.064,0.014,8.875-0.915c2.813-0.932,5.457-2.37,7.933-4.308
		c2.473-1.939,4.515-4.241,6.13-6.906c1.645-2.717,2.814-5.384,3.513-7.999c0.693-2.61,0.95-4.997,0.76-7.158
		c-0.185-2.161-0.634-4.253-1.345-6.27c-0.708-2.022-1.627-3.867-2.757-5.54c-1.127-1.671-2.299-3.273-3.516-4.803
		c-1.222-1.529-2.407-2.936-3.56-4.227c-1.152-1.291-2.144-2.485-2.964-3.586c-0.822-1.098-1.371-2.13-1.645-3.098
		c-0.275-0.968-0.162-1.841,0.326-2.614c0.749-1.187,1.637-1.871,2.656-2.058c1.023-0.185,2.099,0.082,3.235,0.798
		c1.935,1.227,3.211,3.118,3.835,5.68c0.618,2.562,0.523,4.994-0.283,7.302l11.884,7.519l12.637-19.978l-11.032-6.98
		c-1.507,0.785-2.41,1.296-2.708,1.543c-1.602-4.267-4.895-7.975-9.876-11.126c-5.754-3.64-11.285-4.595-16.595-2.857
		c-5.308,1.738-9.907,5.678-13.792,11.819c-1.076,1.701-1.959,3.37-2.644,4.995c-0.688,1.624-1.201,3.161-1.535,4.608
		c-0.338,1.452-0.503,2.911-0.491,4.378c0.009,1.471,0.134,2.842,0.38,4.114C547.729,132.645,548.136,133.971,548.712,135.344z"/>
	<path style="fill:#FFFFFF;" d="M557.652,381.865c0.05,0.301,0.29,0.968,0.45,1.64l2.362-1.209l5.966,6.814
		c0.285,0.043,0.413,0.244,0.459,0.524l2.979,3.403l10.92-5.633l-1.383-2.706c-0.131,0.118-0.291,0.188-0.511,0.167
		c0.09-0.426-0.195-0.476-0.503-0.5c-0.154-0.375,0.236-0.609,0.426-0.815l-3.699-7.235c-0.191-0.115-0.312-0.299-0.471-0.447
		c0.027-0.084,0.083-0.139,0.149-0.181l-7.657-14.972l-9.545,4.879c0.13,0.289,0.373,0.578,0.557,0.777
		c-0.395,0.434-0.725-0.022-0.954-0.574l-2.098,1.072c-0.008,1.108,0.823,1.377,0.556,2.749c-0.555,0.136-0.359-0.478-0.752-0.501
		c0.171,1.614,1.815,2.01,0.752,3.498c2.85,1.866,1.411,5.5,1.997,8.747c-0.52,0.552-0.807-0.216-1.248,0.253
		c0.133,0.514,1.181,0.061,0.495,0.748C557.107,382.147,557.585,382.214,557.652,381.865z M566.653,363.619
		c0.234-0.008,0.188-0.305,0.246-0.497c0.463-0.238,0.834,0.746,0.998,0c0.733,0.213-0.147,0.801,0,1.247
		c-1.091,0.342-0.903-0.592-1.499-0.75C566.445,363.337,566.653,363.482,566.653,363.619z"/>
	<path style="fill:#FFFFFF;" d="M454.692,412.103c0.529,0.471,0.978-0.021,1.509-0.402l-0.358-0.493
		C455.541,411.589,455.183,411.912,454.692,412.103z"/>
	<path style="fill:#FFFFFF;" d="M39.118,443.07l0.055,0.021c-0.016-0.01-0.032-0.015-0.048-0.026
		C39.122,443.066,39.12,443.069,39.118,443.07z"/>
	<path style="fill:#FFFFFF;" d="M38.006,438.129l-0.455,4.328l0.655,0.256c0.652-0.533,0.87-1.502,1.662-1.895
		C39.366,439.807,39.081,438.571,38.006,438.129z"/>
	<path style="fill:#FFFFFF;" d="M40.736,140.158c-0.246-0.703-0.668,0.362-1.001-0.25c0.18-0.568,0.224-1.277,0.503-1.748
		c0.69,0.471,0.416,1.914,1.499,1.998c-0.181,0.724-0.287,1.512-0.729,1.967l17.392,29.132l-6.058,3.616l8.454,14.159
		c14.304-8.575,24.913-14.927,31.835-19.061L84.2,155.853l-4.762,2.841l-7.863-13.176l3.854-2.3c1.571-0.942,2.99-1.485,4.251-1.635
		c1.268-0.149,2.416,0.101,3.459,0.737c1.04,0.641,1.953,1.429,2.741,2.363c0.79,0.937,1.647,2.174,2.572,3.722l4.578,7.668
		c0.642,1.079,1.337,2.005,2.085,2.782c0.754,0.783,1.479,1.404,2.186,1.873c0.706,0.468,1.494,0.788,2.363,0.963
		c0.868,0.175,1.656,0.271,2.364,0.295c0.708,0.023,1.545-0.095,2.51-0.352c0.966-0.258,1.786-0.508,2.459-0.749
		c0.677-0.242,1.52-0.632,2.536-1.168c1.01-0.531,1.819-0.97,2.416-1.309c0.6-0.339,1.406-0.814,2.429-1.425l10.308-6.152
		l-8.434-14.12c-1.468,0.878-2.69,1.493-3.67,1.845c-0.98,0.355-1.803,0.455-2.464,0.301c-0.662-0.159-1.184-0.424-1.571-0.801
		c-0.382-0.371-0.801-0.939-1.255-1.701l-2.184-3.654c-1.44-2.413-3.478-3.92-6.111-4.52c-2.633-0.596-6.171-0.172-10.609,1.267
		c4.012-3.531,6.511-7.247,7.509-11.15c0.996-3.903,0.36-7.754-1.912-11.555c-1.924-3.227-4.067-5.71-6.421-7.453
		c-2.356-1.74-4.884-2.74-7.577-2.998c-2.198-0.207-4.451-0.03-6.75,0.495c0.215-0.006,0.472,0.071,0.735,0.137
		c-0.036,0.547-0.632,0.535-1.247,0.497c0.029-0.319,0.125-0.489,0.264-0.571c-0.442,0.105-0.882,0.201-1.326,0.333
		c-2.854,0.851-5.898,2.238-9.122,4.163L41.937,113.65c0.036,0.234,0.048,0.492,0.047,0.767c-0.353-0.021-0.705-0.041-0.746,0.248
		c-0.179-0.058-0.248-0.224-0.273-0.434l-18.342,10.952l8.29,13.882l6.095-3.643l3.334,5.585
		C40.248,140.525,40.313,140.088,40.736,140.158z M88.966,138.408c-0.028-0.449,0.308-0.528,0.251-1.001h0.75
		C90.085,138.189,89.751,138.523,88.966,138.408z M89.72,135.16c-0.184-0.732-1.534-0.301-1.503-1.251
		C89.31,133.714,90.054,134.695,89.72,135.16z M87.718,130.16c-0.44,1.244,0.083,0.163,0.75,0.751c-0.582,0.978,0.306,0.93,0.252,2
		c-1.202,0.085,0.004,1.457-1.502,1.495c-0.172-0.99,0.437-2.766-0.5-2.996C87.113,131.053,86.915,130.105,87.718,130.16z
		 M85.471,128.912c1.028-0.195,2.068,0.352,1.499,0.999c-0.246-0.009-0.195-0.309-0.25-0.501c-0.58,0.11-0.669,1.104-1.249,0.501
		c1.241-0.72-0.468-0.645-0.501-1.499C85.396,128.319,85.438,128.607,85.471,128.912z M82.222,121.662
		c0.402-0.066,0.431,0.236,0.748,0.248c-0.13,0.373-0.368,0.633-0.497,1.004C81.836,122.887,81.877,121.982,82.222,121.662z
		 M80.969,124.161c-0.011,0.989-0.511,1.489-1.499,1.499C78.9,124.914,79.664,123.821,80.969,124.161z M78.972,110.919
		c0.403-0.072,0.432,0.233,0.752,0.249c0.189,1.24-0.765,1.331-0.254,2.248c-0.796-0.203-0.927-1.07-1.248-1.748
		C78.767,111.711,79.014,111.463,78.972,110.919z M76.97,105.422c0.637,0.331,0.159,1.629-0.749,1.249
		C76.159,105.432,76.973,106.232,76.97,105.422z M75.723,97.421c0.077-0.335,0.626-0.206,0.998-0.246
		c0.271,0.927-0.525,0.804-0.746,1.248C75.097,98.355,76.601,97.491,75.723,97.421z M40.484,132.162
		c-0.929-0.558-0.323-2.243,0.75-2.251c-0.087,0.503,0.054,0.78,0.503,0.749c0.101,0.606-0.461,0.544-0.251,1.249
		C41.151,131.586,40.557,131.582,40.484,132.162z M41.237,134.158c-0.793-0.859-0.522-0.826-0.25-1.999
		c0.95-0.367,0.047,1.118,0.996,0.75C41.838,133.429,41.46,133.72,41.237,134.158z M49.483,137.659
		c0.492,0.172,0.667,0.665,0.749,1.247C49.449,139.02,49.435,138.372,49.483,137.659z M73.721,99.672
		c0.08-0.342,0.632-0.207,1.001-0.249c0.077,0.657-0.344,0.816-1.001,0.75C73.878,99.95,74.029,99.727,73.721,99.672z
		 M74.474,98.924c-0.732,0.223-0.768,0.223-1.497,0C72.602,97.247,74.789,97.447,74.474,98.924z M62.571,120.16
		c2.334-1.394,4.536-1.86,6.604-1.406c2.065,0.455,3.718,1.718,4.953,3.789c0.783,1.313,1.184,2.604,1.195,3.875
		c0.013,1.275-0.317,2.451-0.99,3.525c-0.673,1.079-1.491,2.049-2.45,2.905c-0.966,0.862-2.115,1.689-3.453,2.491l-2.399,1.431
		l-8.22-13.768L62.571,120.16z M57.231,134.907c-0.108,0.979-1.394,0.776-2.251,0.999C55.45,135.185,56.146,134.308,57.231,134.907z
		 M54.98,138.906c0.183,0.683-0.498,0.505-0.501,1.002c0.265,0.484,1.153,0.348,1.502,0.746c-0.911,0.188-2.079,0.664-3.001,0.751
		c0.523,0.145-0.361,0.943-0.251,1.503H50.73c-0.583-0.48-0.241-0.891-0.75-1.752c1.951,0.437,2.721-1.49,3.75-0.502
		c0.747-0.886-0.804-1.227,0.249-1.997C54.407,139.304,54.292,139.512,54.98,138.906z M53.979,137.659
		c-0.939,0.416-1.135-1.165-1.498-0.503c-0.792-0.567,0.728-0.917,1.249-0.998C53.196,137.595,53.535,136.824,53.979,137.659z
		 M54.231,135.16c-0.355-0.021-0.709-0.039-0.75,0.248c-0.428-0.074,0.323-0.868-0.752-0.749c0.085-0.919-0.21-2.213,0.251-2.752
		C53.628,132.764,54.339,133.55,54.231,135.16z M51.73,119.164c0.717,3.948,1.045,8.285,1.499,12.497
		c-0.425,0.054-0.646-0.427-0.748,0c-0.868-0.347,1.123-0.886-0.501-0.752C53.169,128.117,50.931,123.01,51.73,119.164z
		 M49.231,110.919c1.101,0.618,1.401,1.057,1.753,1.996c-0.583-0.333-1.422-0.412-2.004-0.747
		C48.903,111.588,49.024,111.208,49.231,110.919z M46.986,139.158c0.521-0.144,0.711-0.622,1.495-0.498
		c0.052,0.947,1.051,0.947,1.004,1.997c-2.369-0.291-2.705-2.272-5.251-1.251c0.208-0.793,0.938-1.06,1.001-1.999
		C46.526,137.281,46.105,138.873,46.986,139.158z M44.234,135.16c-0.101,0.479-0.968,0.196-0.749,0.998
		C42.511,135.924,43.175,134.803,44.234,135.16z M42.985,121.662c-0.715-0.287,0.404-0.287,0.502,0
		c0.029,0.449-0.308,0.529-0.254,1.001c-0.651,0.069-1.076-0.093-0.999-0.753C42.723,122.191,43.517,122.031,42.985,121.662z
		 M42.238,124.413c-0.535,0.601-0.932,0.438-1.502,0.249c-0.03-0.449,0.306-0.525,0.251-1
		C41.919,123.396,41.791,124.188,42.238,124.413z M40.484,121.914c0.011-0.244,0.306-0.195,0.501-0.25
		c0.049-0.21-0.098-0.238-0.249-0.251c0.585-0.729,0.54,1.275,0.498,2.002C39.656,123.318,41.681,122.396,40.484,121.914z
		 M40.987,115.166c1.366,1.529-0.303,2.246,0.25,5.249c-0.876,0.44,0.245-2.531-0.753-1.002
		C39.953,118.289,41.327,116.928,40.987,115.166z M40.736,125.912c0.287-0.21,0.673-0.328,1.249-0.252
		c0.045-0.213-0.099-0.232-0.248-0.248c-0.719-0.29,0.4-0.29,0.497,0c-0.13,1.377-1.956,1.799-1.247,3.252
		c-1.21-0.244-0.58,0.72-0.503,1.247h-1C40.103,128.337,40.426,127.9,40.736,125.912z"/>
	<path style="fill:#FFFFFF;" d="M96.351,455.563c-0.045,0.289-0.398,0.271-0.751,0.25c-0.285,0.786,0.394,0.604,0.499,0.999
		c-0.406-0.077-0.676,0.339-0.249,0.498C96.432,456.734,96.69,456.044,96.351,455.563z"/>
	<path style="fill:#FFFFFF;" d="M114.774,93.223l14.48,39.139l-6.786,2.514l5.702,15.422l54.952-20.33l-10.921-29.514l-11.729,4.336
		l1.54,12.475l0.409,2.828l-9.409,3.479l-4.402-11.9l8.809-3.259l-5.595-15.123l-8.809,3.261l-4.483-12.116l9.15-3.384l8.066,11.765
		l11.498-4.302l-10.396-28.1L128.673,70.84c0.254,0.342-0.276,0.975-0.22,1.343c-0.451,0.031-0.528-0.308-1-0.251
		c-0.15-0.764,0.571-0.651,0.87-0.964l-25.947,9.603l5.61,15.165L114.774,93.223z M180.686,125.91
		c0.036,0.544-0.891,0.115-1.252,0.253c0.041-0.292-0.057-0.446-0.252-0.503C179.517,124.953,180.297,125.855,180.686,125.91z
		 M173.686,119.164c0.025,1.338-1.363,0.395-1.25-0.497C173.209,118.478,172.74,119.524,173.686,119.164z M171.689,115.916
		c0.332,0.164,0.461,0.537,0.497,1h-1.25C170.718,116.113,171.761,116.572,171.689,115.916z M143.699,125.66
		c0.687,0.391,0.022,1.505-0.253,1.751C142.76,127.023,143.421,125.91,143.699,125.66z M157.69,77.68
		c-0.426,0.093-0.469-0.194-0.497-0.5c-0.293,0.041-0.21,0.455-0.252,0.75c-0.516-0.066-0.057-1.107-0.749-1
		C155.776,76.663,157.757,76.512,157.69,77.68z M139.697,75.932c0.547-0.049,0.798,0.204,0.753,0.75
		c-0.448-0.071-0.514,0.236-0.252,0.248C139.686,77.585,139.331,76.404,139.697,75.932z M136.702,72.93h0.996
		c0.436,0.885-0.167,0.618-0.246,1.501c-0.2-0.131-0.406-0.259-0.75-0.249C137.169,73.705,136.553,73.73,136.702,72.93z
		 M110.96,89.676c0.2,0.172,0.684,0.389,0.75,0c0.189,0.411,1.234,1.237,1.499,0.746c0.359,0.061,0.087,0.748,0.501,0.754
		c-0.63,0.439-0.178,0.412-0.501,0.998c-0.442-0.461-2.402,0.02-2.998-1.998C110.637,90.186,110.857,89.989,110.96,89.676z"/>
	<path style="fill:#FFFFFF;" d="M96.599,452.565c-0.186-1.417,1.134-2.823,0-3.75C96.757,450.531,95.143,451.922,96.599,452.565z"/>
	<path style="fill:#FFFFFF;" d="M519.315,446.972l-7.969-31.855c-0.064-0.001-0.113-0.016-0.18-0.014
		c-0.035-0.232-0.01-0.406,0.036-0.559l-1.64-6.557c-0.047-0.045-0.084-0.102-0.147-0.132c-1.329,0.21-0.128,1.411-0.749,2.247
		c-1.463-0.682-0.222-2.822,0.533-3.563l-0.021-0.078l0.147-0.038c0.03-0.024,0.062-0.051,0.089-0.069
		c0.035,0.005,0.063,0.017,0.097,0.023l2.912-0.729c0-0.017-0.007-0.023-0.006-0.042c0.057,0.007,0.101,0.002,0.152,0.005
		l0.661-0.165c0.093-0.084,0.164-0.186,0.188-0.34c0.119,0.078,0.253,0.143,0.405,0.191l1.89-0.474l-0.954-3.81
		c-0.255,0.473-0.646,0.811-1.341,0.844c0.083-1.136,0.583-1.859,0.848-2.816l-2.483-9.913l-34.863,8.729l-1.91,18.994h1.169
		c-0.194,0.223-0.27,0.567-0.251,1c-0.689,0.143-0.86-0.237-0.949-0.699l-0.752,7.478c0.685-0.404,1.12-1.572,2.203-1.532
		c-0.102,0.735-0.823,0.847-1.001,1.501c1.14,0.788,2.253-1.332,3.748-0.252c-0.835,1.037-2.174,1.607-3.496,1.499
		c-0.192-0.221-0.267-0.562-0.252-0.999h-0.749c0.082,0.586,0.396,0.938,0.248,1.752c-0.309-0.177-0.584-0.388-0.836-0.623
		l-0.911,9.053l-15.786-21.685c-0.505,0.231-0.98,0.494-0.957,1.257c-0.508-0.072-0.493-0.675-0.999-0.747
		c-0.459,0.293,0.572,0.213,0,0.998c-1.963-0.667-3.533,1.099-4.497,2.248c-1.783-0.428-2.404,0.225-3.251,1.251
		c0.452,0.513,1.227-0.758,1.997-0.752c-0.842,2.163-3.069,2.926-5.494,3.497c0.044-0.299-0.077-0.411-0.167-0.383
		c-0.024,0.043-0.065,0.099-0.086,0.137c0.005-0.086,0.042-0.123,0.086-0.137c0.636-1.064,2.847-3.479,4.161-3.613
		c0.355-1.172,2.013-2.901,4-3.246c-0.581-0.208,1.54-1.655,1.75-3.249c0.506-0.013,0.89-0.145,1.225-0.328l-4.3-5.905
		l-37.129,9.296l3.971,15.681l7.427-1.855l7.366,29.438c0.251,1.009,0.44,1.756,0.565,2.248c0.123,0.485,0.262,1.145,0.421,1.974
		c0.158,0.821,0.247,1.44,0.251,1.846c0.006,0.41,0,0.932-0.01,1.564c-0.015,0.638-0.107,1.123-0.272,1.461
		c-0.17,0.341-0.395,0.737-0.672,1.186c-0.284,0.449-0.643,0.804-1.08,1.075c-0.437,0.262-0.968,0.541-1.59,0.819
		c-0.62,0.285-1.334,0.526-2.134,0.725l3.992,15.964l28.95-7.245l-3.996-15.966c-0.8,0.202-1.537,0.333-2.215,0.39
		c-0.677,0.061-1.272,0.083-1.781,0.069c-0.505-0.015-0.976-0.126-1.402-0.331c-0.433-0.211-0.794-0.387-1.081-0.536
		c-0.287-0.147-0.572-0.432-0.851-0.853c-0.279-0.416-0.484-0.741-0.624-0.978c-0.133-0.233-0.3-0.634-0.489-1.198
		c-0.188-0.567-0.316-0.986-0.383-1.25c-0.066-0.268-0.177-0.714-0.333-1.334l-5.164-20.635l29.614,39.798l12.494-3.129l4.34-47.251
		l6.879,27.481l-5.473,1.369l3.996,15.963l35.707-8.936l-3.997-15.967L519.315,446.972z M512.918,403.605
		c1.109,0.041-0.087,1.392-0.252,1.75C511.794,404.783,513.262,404.469,512.918,403.605z M456.188,427.6
		c0.355-0.375,0.799-0.539-0.251-0.503c-0.728-0.378,1.659-0.378,1.75,0C457.664,427.738,456.851,427.592,456.188,427.6z
		 M461.435,428.35c-0.134-0.886,0.887-0.619,0.752-1.502c0.333,0.326,0.932,0.328,1.001-0.248c0.192,0.39,0.793,0.368,0.746,1
		C462.099,427.153,463.011,427.717,461.435,428.35z M487.676,397.859c-0.612,0.857,0.475,1.746,1.251,1.996
		c-1.19,0.654,0.195,1.368,0,2.5c-1.643-2.205-1.443-4.832-4.748-5.496C485.287,396.256,486.19,398.003,487.676,397.859z
		 M478.933,422.6c0.039-0.705-0.709-0.626-1.001-1c0.165-0.336,0.533-0.465,1.001-0.501
		C478.05,421.906,480.14,422.407,478.933,422.6z M480.432,429.845c-0.804,0.07-0.908-1.093-0.501-1.495h0.752
		C481.024,428.67,481.114,429.838,480.432,429.845z M481.433,399.858c0.233-0.629,1.4-0.391,1.996-0.249
		C483.147,400.634,482.319,399.666,481.433,399.858z M483.679,404.357c-0.086,1.338-0.747,0.26-1.248,0
		C482.639,403.624,483.06,404.681,483.679,404.357z M482.932,412.103c0.58,0.254,1.162,0.503,1.249,1.252
		C483.398,414.059,482.722,413.146,482.932,412.103z M484.682,422.6c0.042-0.291-0.057-0.446-0.251-0.503
		c0.979-0.446,0.713,0.151,1.249-0.746C486.277,421.725,485.281,422.6,484.682,422.6z M486.433,405.355
		c-0.398-1.023-0.388-1.315-0.504-2.247c0.944-0.113,1.176,0.489,1.751,0.749C487.289,404.383,487.23,405.244,486.433,405.355z
		 M488.429,403.108c0.708-0.208,0.645,0.352,1.247,0.246C489.632,404.125,488.334,403.883,488.429,403.108z M508.17,414.103
		c0.447,0.182,0.035,0.453,0,0.748c0.06,0.645,0.431-0.344,1.001,0c0.077,0.658-0.349,0.822-1.001,0.747
		C508.096,415.017,507.683,414.57,508.17,414.103z M508.668,402.857c-0.591,0.741-0.251,0.957,0,2.002
		c-0.998,0.082-0.655-1.176-1.247-1.501c-0.236,0.184-0.375,0.454-0.498,0.749c-0.544,0.041-0.112-0.886-0.252-1.25
		c0.784,0.036,0.857-0.64,0.999-1.249C508.568,401.462,507.68,403.101,508.668,402.857z M506.171,394.859
		c0.557,0.194,1.355,0.146,1.501,0.749c0.608-0.025,0.052-0.824-0.251-0.749c1.717-0.619-0.257,1.55,0.251,2
		c-0.97,0.048-1.436-0.398-1.501-1.251h1.001C507.251,394.946,505.772,395.845,506.171,394.859z M499.172,432.846h-0.497
		c0.446-0.801,0.749-1.75,1.501-2.251C499.881,431.383,499.331,431.92,499.172,432.846z M502.176,415.103
		c-0.455-0.431,0.076-0.985,0.748-1C502.99,414.757,502.831,415.175,502.176,415.103z M505.425,421.351
		c-0.663-0.731,0.721-0.945,0.495-2c-0.255-0.705-1.06,0.07-1.502,0c-0.369-0.376-0.444-1.052-0.999-1.249
		c1.246-0.719,4.163-0.375,4.002-1.754c0.293,0.211,0.669,0.332,1.247,0.255c-0.19,0.722-0.616,1.214-1.745,0.998
		c0.104,0.308,0.316,0.514,0.747,0.501c-0.059,0.439-0.431,0.566-0.999,0.5c0.17,1.117,0.033,1.417,0.75,2.248
		C506.425,420.689,506.419,421.512,505.425,421.351z M510.419,420.349h-1.002c-0.76,2.572-1.96,4.7-2.994,6.997
		c0.161-3.162,1.267-5.572,2.748-7.494c-1.283-0.487,0.19-1.42,0.246-1.748c0.021-0.104-0.42-0.613-0.495-0.503
		c0.603-0.889,1.261-0.875,2.5-1.25C511.383,418.398,510.29,418.619,510.419,420.349z"/>
	<path style="fill:#FFFFFF;" d="M324.943,466.408c-0.101,2.261-0.205,3.695-0.317,4.311c-0.432,2.449-1.576,4.413-3.44,5.883
		c-1.863,1.474-4.031,2.226-6.515,2.25c-1.86,0.026-3.495-0.291-4.911-0.951c-1.412-0.654-2.516-1.542-3.306-2.667
		c-0.794-1.119-1.463-2.413-2.017-3.873c-0.556-1.46-0.899-2.982-1.04-4.573c-0.14-1.586-0.265-3.182-0.376-4.783
		c-0.109-1.604-0.125-3.094-0.049-4.472c-0.01-0.915-0.02-1.588-0.022-2.017c-0.016-1.435-0.018-2.659,0.003-3.665
		c0.02-1.009,0.098-2.265,0.232-3.763c0.138-1.498,0.338-2.779,0.6-3.838c0.261-1.055,0.661-2.166,1.195-3.336
		c0.54-1.167,1.175-2.121,1.926-2.864c0.733-0.738,1.673-1.354,2.815-1.839c1.142-0.485,2.429-0.74,3.867-0.756
		c1.924-0.023,3.625,0.38,5.1,1.202c1.477,0.826,2.623,1.917,3.43,3.285c0.808,1.364,1.409,2.817,1.793,4.358
		c0.386,1.537,0.57,3.117,0.556,4.737l13.664-0.155l-0.378-28.973l-14.254,0.164l-1.525,3.275c-1.388-1.298-3.117-2.294-5.186-2.992
		c-2.073-0.693-3.921-1.106-5.541-1.243c-1.619-0.136-3.56-0.189-5.828-0.163c-4.301,0.051-8.223,0.844-11.75,2.381
		c-3.523,1.538-6.468,3.572-8.823,6.106c-2.355,2.533-4.327,5.497-5.928,8.892c-1.597,3.395-2.742,6.916-3.429,10.563
		c-0.695,3.644-1.017,7.406-0.976,11.286c0.078,6.509,1.086,12.272,3.009,17.307c1.325-0.571,2.727-1.066,4.26-1.43
		c-1.355,0.608-2.712,1.212-4.148,1.738c0.318,0.813,0.657,1.614,1.026,2.392c2.679,5.641,6.698,10.035,12.067,13.181
		c5.369,3.147,11.842,4.677,19.423,4.595c3.178-0.039,6.342-0.441,9.502-1.211c3.151-0.766,5.837-1.677,8.056-2.727
		c2.22-1.05,4.206-2.104,5.972-3.162c1.758-1.06,3.077-1.961,3.958-2.702l1.316-1.116l-0.213-18.795L324.943,466.408z
		 M277.282,445.065c0.592,0.077,0.463,0.87,1.249,0.75C278.197,446.45,276.898,445.974,277.282,445.065z M278.531,446.565
		c0.318-0.431,0.518-0.985,1.247-1C279.732,446.269,279.348,446.628,278.531,446.565z M305.772,486.801
		c-0.162-0.544,0.707-0.799-0.251-0.749C305.788,484.707,307.36,486.947,305.772,486.801z"/>
	<path style="fill:#FFFFFF;" d="M411.096,429.37c-3.887-5.54-8.788-9.528-14.717-11.977c-5.928-2.453-12.447-3.303-19.56-2.554
		c-7.232,0.76-13.492,2.956-18.779,6.587c-5.285,3.631-9.256,8.559-11.902,14.779c-2.653,6.227-3.563,13.262-2.735,21.099
		c0.749,7.141,3.066,13.458,6.95,18.952c3.877,5.491,8.849,9.593,14.91,12.306c6.064,2.708,12.571,3.698,19.533,2.966
		c6.959-0.73,13.123-3.053,18.487-6.97c5.364-3.911,9.377-8.959,12.026-15.14c2.656-6.18,3.609-12.84,2.853-19.979
		C417.339,441.598,414.987,434.906,411.096,429.37z M391.064,463.492c-0.059,1.206-0.167,2.372-0.32,3.512
		c-0.156,1.139-0.426,2.206-0.816,3.196c-0.385,0.994-0.869,1.874-1.447,2.642c-0.582,0.77-1.325,1.398-2.223,1.895
		c-0.9,0.494-1.945,0.806-3.126,0.929c-1.036,0.107-2.012,0.049-2.925-0.177c-0.915-0.227-1.715-0.586-2.395-1.086
		c-0.684-0.498-1.31-1.107-1.874-1.83c-0.569-0.726-1.055-1.527-1.454-2.404c-0.4-0.879-0.766-1.825-1.103-2.834
		c-0.339-1.011-0.606-2.043-0.81-3.098c-0.202-1.053-0.402-2.115-0.59-3.188c-0.19-1.067-0.321-2.109-0.398-3.112
		c-0.071-1.006-0.174-1.965-0.297-2.872c-0.067-0.608-0.113-1.065-0.147-1.37c-0.033-0.337-0.09-0.865-0.167-1.594
		c-0.158-0.934-0.274-1.938-0.339-3.008c-0.065-1.068-0.144-2.158-0.23-3.272c-0.088-1.108-0.088-2.23-0.011-3.362
		c0.083-1.129,0.198-2.218,0.35-3.262c0.151-1.045,0.431-2.03,0.845-2.946c0.408-0.921,0.9-1.739,1.465-2.461
		c0.572-0.722,1.314-1.313,2.232-1.779c0.925-0.465,1.974-0.76,3.157-0.883c1.338-0.142,2.564-0.033,3.68,0.326
		c1.115,0.358,2.038,0.916,2.778,1.665c0.738,0.752,1.406,1.65,2.009,2.693c0.603,1.041,1.068,2.162,1.393,3.356
		c0.326,1.193,0.621,2.431,0.896,3.706c0.273,1.28,0.457,2.528,0.557,3.741c0.097,1.225,0.218,2.38,0.363,3.471
		c0.077,0.73,0.129,1.263,0.168,1.599c0.033,0.303,0.079,0.757,0.146,1.363c0.134,1.031,0.251,2.125,0.344,3.281
		c0.087,1.164,0.176,2.342,0.257,3.548C391.112,461.082,391.122,462.286,391.064,463.492z"/>
	<path style="fill:#FFFFFF;" d="M588.888,403.354c-0.792-0.203-0.926-1.07-1.244-1.747c0.436,0.035,0.673-0.126,0.731-0.467
		l-1.255-2.455l-11.143,5.692l3,12.217l0.741,2.762l-8.938,4.57l-5.778-11.308l8.366-4.281l-7.345-14.364l-8.368,4.276
		l-5.153-10.083c-0.273-0.161-0.596-0.271-1.098,0.196c0.764,0.564,0.221,2.772,0.251,3.746c-0.784-0.368-1.2-0.19-1.249,0.75
		c-0.588-0.066-0.155-1.105,0.248-0.998c0.075-0.303-0.723-0.863-0.749-0.251c-0.314-0.355,0.046-0.947,0.501-0.998
		c-1.756-1.899,0.475-4.448,0.749-5.747c-2.01-0.254-0.567-3.478-1.501-4.25c2.045-1.9,0.113-5.061,1.75-6.249
		c0.482,0.103,0.021,1.144,1,0.751c-0.44,0.393-0.518,1.146-1.249,1.248c0.649,0.459,1.009,1.504,0,1.75
		c0.854,0.32,1.039,3.621,0.249,4.997c0.041,0.295,0.452,0.21,0.749,0.251c-0.349,2.087-0.169,1.928-0.498,4.251
		c0.216,0.022,0.393,0.007,0.549-0.03l-0.431-0.843l1.074-0.55c-0.527-1.51-0.253-2.684-0.445-4.077
		c0.794,0.574,0.52,3.162,0.503,4.048l3.678-1.881c-0.305-0.783-0.294-1.957-0.18-2.919c-1.104-0.704-1.119-2.267-1.253-2.998
		c0.764,0.077,0.866,1.563,0.504,1.999c1.452-0.225,0.944-1.16,1.498-2.5c-0.166-0.743-0.533,0.242-1,0
		c0.03-0.923,0.363-0.626,1-0.497c0.178-0.766-0.256-0.911-0.254-1.499c-0.475,0.78-0.877,1.82-1.996,1.499
		c0.167-1.117,1.45-0.384,1.751-1.747c-0.321-0.566-1.196-0.733-0.25-1.253c-0.172-0.548-0.831,0.475-1.001,0.751
		c-0.339-1.208-0.284-1.804-1-3.5c0.404-0.069,0.431,0.233,0.748,0.252c-0.448-0.467-0.82-1.012-1.247-1.499
		c0.627-0.667,0.168-0.293,0-1.75c-0.957,0.128-0.616,1.552-2.002,1.249c0.932,1.74-0.059,2.361-0.497,4.248
		c-0.224-0.154-0.446-0.303-0.498,0c-0.884-0.488-0.185-1.252-0.252-2.248c-0.24,0.422-0.692,0.641-1.499,0.499
		c1.297-0.826-1.465-0.879-0.251-2.251c0.391,0.109,0.215,0.786,0.998,0.501c0.314-0.268,0.238-0.663,0.039-1.113l-4.996,2.554
		c-0.481,1.629-1.553,3.262-1.787,5.059c-0.647-1.258,0.249-2.859,0.166-4.229l-13.31,6.803c-0.366,0.366-0.642,0.803-0.605,1.426
		c-0.287-0.313-0.539-0.501-0.795-0.711l-13.229,6.763l2.519,4.928c0.567-1.208,1.259-2.435,1.759-3.483
		c-0.048,1.56-0.625,2.9-1.377,4.229l4.464,8.733l6.453-3.295l19.008,37.181l-6.453,3.298l7.492,14.651l49.142-25.121
		c0.005-0.389,0.297-0.494,0.244-0.941h0.749c0.025,0.168,0.02,0.307,0.002,0.434l2.067-1.057l-12.513-24.47
		C588.771,402.59,588.606,402.85,588.888,403.354z M520.417,387.614c-0.487-0.978,0.383-1.214,0.5-2.251
		C521.947,385.484,520.79,387.275,520.417,387.614z M527.659,384.365c-0.484-0.588,0.766-1.562,1.007-2.251
		C529.631,383.18,527.742,383.515,527.659,384.365z M541.658,391.61c-0.591-0.771,0.3-2.191,0.251-3.247
		C542.499,389.133,541.607,390.552,541.658,391.61z M563.4,427.598c-0.941,0.415-1.136-1.163-1.501-0.501
		c-0.793-0.567,0.732-0.919,1.25-0.998C562.615,427.535,562.954,426.766,563.4,427.598z M562.899,425.35
		c-0.428-0.077,0.323-0.867-0.752-0.75c0.085-0.919-0.21-2.213,0.253-2.752c0.646,0.857,1.359,1.643,1.25,3.249
		C563.298,425.076,562.944,425.059,562.899,425.35z M561.152,409.105c0.714,3.947,1.042,8.281,1.499,12.496
		c-0.431,0.052-0.647-0.426-0.75,0c-0.871-0.346,1.123-0.885-0.503-0.752C562.588,418.055,560.347,412.95,561.152,409.105z
		 M558.65,400.857c1.101,0.618,1.398,1.057,1.753,1.999c-0.581-0.334-1.422-0.413-2.002-0.747
		C558.321,401.529,558.442,401.147,558.65,400.857z M551.656,402.607c-0.801,0.213-0.774-0.395-1.253-0.501
		c0.208-0.711,0.565-1.267,1.253-1.499C551.302,401.959,550.725,401.611,551.656,402.607z M549.901,411.852
		c0.013-0.243,0.308-0.192,0.502-0.249c0.047-0.21-0.097-0.236-0.248-0.249c0.588-0.731,0.541,1.275,0.5,2
		C549.074,413.256,551.098,412.338,549.901,411.852z M550.655,410.355c-0.875,0.441,0.247-2.531-0.752-1.002
		c-0.531-1.123,0.842-2.488,0.504-4.246C551.771,406.637,550.104,407.353,550.655,410.355z M550.655,404.605
		c-0.563-0.184-0.097-1.4-0.248-1.998c0.887,0.028,1.002,0.826,0.998,1.75C551.05,404.335,550.696,404.315,550.655,404.605z
		 M550.407,400.859c0.172-0.772,0.172-0.482,0-1.252C551.409,399.363,551.409,401.103,550.407,400.859z M549.903,393.111
		c0.906-0.01,1.95,2.187,0.504,2.248c0.535-0.29-0.183-2.127-0.504-1.498C549.534,393.752,550.003,393.542,549.903,393.111z
		 M547.403,371.368c0.665,0.335,1.169,0.837,1.502,1.499C548.357,372.42,547.587,372.19,547.403,371.368z M548.156,432.846v-0.75
		c0.404,0.424,1.289,0.229,1.499-0.251c0.513,0.072,0.497,0.671,0.752,1.001H548.156z M550.407,432.096
		c-0.485-0.092-1.132-2.146-0.25-1.996c-0.249-0.706-0.667,0.361-1.001-0.255c0.181-0.566,0.221-1.272,0.501-1.747
		c0.689,0.475,0.413,1.917,1.497,2.002C550.974,430.833,550.869,431.645,550.407,432.096z M551.156,420.602
		c0.1,0.602-0.46,0.543-0.252,1.246c-0.331-0.323-0.926-0.327-1.001,0.252c-0.927-0.557-0.322-2.24,0.752-2.248
		C550.568,420.353,550.706,420.632,551.156,420.602z M550.655,424.097c-0.792-0.86-0.519-0.824-0.248-1.997
		c0.951-0.367,0.046,1.116,0.998,0.75C551.256,423.369,550.878,423.658,550.655,424.097z M550.407,418.602
		c-1.212-0.241-0.578,0.725-0.501,1.25h-1.001c0.616-1.576,0.939-2.012,1.25-4.001c0.29-0.211,0.672-0.329,1.25-0.249
		c0.046-0.213-0.098-0.233-0.249-0.249c-0.717-0.29,0.402-0.29,0.5,0C551.523,416.728,549.696,417.152,550.407,418.602z
		 M550.157,414.601c-0.033-0.446,0.303-0.525,0.25-0.998c0.932-0.265,0.804,0.525,1.249,0.751
		C551.122,414.952,550.723,414.793,550.157,414.601z M551.656,411.852c0.488,0.28,1.278,0.118,0.747-0.249
		c-0.711-0.289,0.406-0.289,0.501,0c0.03,0.45-0.303,0.529-0.252,1.002C552,412.673,551.579,412.512,551.656,411.852z
		 M552.904,426.099c-0.976-0.236-0.309-1.357,0.749-1.002C553.553,425.58,552.686,425.295,552.904,426.099z M553.653,429.348
		c0.207-0.794,0.939-1.063,1.001-2c1.291-0.128,0.87,1.463,1.75,1.751c0.521-0.146,0.714-0.622,1.499-0.501
		c0.052,0.95,1.047,0.95,1.001,1.997C556.537,430.308,556.199,428.326,553.653,429.348z M558.904,427.6
		c0.49,0.17,0.665,0.665,0.749,1.247C558.868,428.96,558.853,428.314,558.904,427.6z M562.148,432.846h-1.996
		c-0.584-0.478-0.24-0.888-0.752-1.75c1.954,0.436,2.723-1.489,3.75-0.501c0.746-0.888-0.804-1.229,0.251-1.999
		c0.427,0.646,0.314,0.854,1.001,0.251c0.181,0.683-0.5,0.503-0.502,1.002c0.267,0.481,1.149,0.348,1.501,0.746
		c-0.911,0.185-2.079,0.665-3,0.749C562.924,431.491,562.038,432.289,562.148,432.846z M564.396,425.847
		c0.473-0.724,1.17-1.601,2.254-0.999C566.542,425.826,565.253,425.624,564.396,425.847z M599.136,425.101
		c-0.181-0.735-1.528-0.304-1.498-1.253C598.732,423.654,599.475,424.636,599.136,425.101z M597.14,420.098
		c-0.441,1.247,0.076,0.166,0.749,0.752c-0.584,0.98,0.304,0.932,0.25,2c-1.201,0.085,0.005,1.459-1.502,1.498
		c-0.175-0.99,0.437-2.767-0.498-2.997C596.531,420.991,596.335,420.046,597.14,420.098z M594.889,418.853
		c1.03-0.195,2.072,0.352,1.497,0.998c-0.241-0.008-0.193-0.308-0.247-0.503c-0.579,0.11-0.668,1.104-1.25,0.503
		c1.245-0.721-0.469-0.645-0.501-1.501C594.815,418.258,594.86,418.548,594.889,418.853z M591.642,411.603
		c0.401-0.069,0.433,0.236,0.75,0.249c-0.134,0.369-0.372,0.632-0.5,1.001C591.254,412.827,591.298,411.924,591.642,411.603z
		 M590.391,414.103c-0.012,0.987-0.514,1.485-1.503,1.495C588.321,414.852,589.086,413.758,590.391,414.103z"/>
	<g>
		<path style="fill:#FFFFFF;" d="M259.166,219.737c-0.198-0.078-0.406-0.158-0.601-0.235c-0.014,0.156,0.005,0.28,0.041,0.389
			c0.122-0.034,0.24-0.061,0.365-0.101C259.037,219.767,259.101,219.755,259.166,219.737z"/>
		<path style="fill:#FFFFFF;" d="M250.886,217.38c0.077,0.053,0.156,0.104,0.234,0.155c-0.027-0.086-0.045-0.181-0.054-0.284
			C250.985,217.274,250.931,217.322,250.886,217.38z"/>
		<path style="fill:#FFFFFF;" d="M502.299,257.209c0.053-0.003,0.105-0.006,0.158-0.008c-0.057-0.005-0.098,0.002-0.178-0.019
			C502.287,257.194,502.292,257.198,502.299,257.209z"/>
		<path style="fill:#FFFFFF;" d="M289.2,200.512c-1.166-0.646-2.33-1.744-3.537-1.801c-3.649-0.178-7.324,0.184-10.979,0.053
			c-1.144-0.038-2.658-0.68-3.306-1.561c-1.94-2.639-3.963-5.32-5.401-8.239c-2.843,0.327-5.738,0.575-7.662,1.795
			c-2.857-1.011-8.869,0.927-11.995,1.253c1.001-1.083,3.449-0.716,4.997-1.253c0.046-0.708-1.635,0.303-1.25-0.746
			c5.493-1.456,9.967-2.057,15.027-2.882c-1.98-3.984-5.059-6.244-9.37-7.054c-1.905-0.358-3.907-0.382-5.853-0.306
			c-4.973,0.195-9.121,2.41-11.443,6.691c-0.227,0.417-0.436,0.842-0.642,1.269c3.722-1.278,10.715-1.165,13.281-2.717
			c0.929-0.223,3.106-0.505,5-0.503c-3.211,1.317-5.642,1.643-9.25,2.251c0.113,0.224,0.223,0.446,0.503,0.499
			c-0.672,0.248-1.137,0.7-1.999,0.751c-2.349-1.628-4.799,0.282-7.709,0.063c-0.221,0.469-0.424,0.946-0.62,1.426
			c6.752-0.604,13.732-2.02,19.326-2.99c-4.853,1.871-11.497,1.982-16.996,3.75l-2.549-0.204c-1.249,3.235-1.949,6.69-1.941,10.271
			c0.005,2.148,0.834,3.345,3.148,3.485c2.38,0.15,3.514,1.461,3.544,3.822c0.02,1.716-0.107,3.437-0.102,5.152
			c0.009,2.141,0.561,2.442,2.49,1.779l-0.591-2.566c0.404,0.604,1.77,1.551,2.247,1.252c0.272,0.059,0.17,0.495,0.499,0.498
			c-0.034,0.292-0.143,0.511-0.294,0.687c0.33,0.062,0.646,0.149,0.898,0.294c1.271,0.732,2.508,1.526,3.736,2.334
			c0.507-0.227,1.341-0.005,1.159,0.688c-0.047,0.01-0.074,0-0.112,0c0.22,0.146,0.439,0.287,0.658,0.432
			c-0.014-0.064-0.041-0.115-0.049-0.186c0.501-0.47,1.07-0.234,1.25-0.498c0.671,0.225-0.305,0.762-0.01,1.457
			c0.008,0.006,0.017,0.012,0.024,0.018c0.285-0.503,1.51-1.253,1.486,0.021c-0.576-0.116-0.901-0.361-0.98,0.291
			c1.185,0.705,2.373,0.987,3.695,0.827c-0.087-0.263-0.186-0.579-0.464-0.864c0.2,0.17,0.686,0.389,0.745,0
			c0.113-1.108-1.879-0.121-1.497-1.498c-0.894,0.497-0.868-0.37-1.499-0.752c0.742-0.234,2.241,1.104,2.996-0.249
			c0.182,0.683-0.493,0.503-0.498,1.001c1.121,0.097,2.002,1.186,3.248,0.749c0.455,0.636,1.068,1.261,2.003,0.749
			c0.015,0.324,0.184,0.62,0.449,0.896c0.255,0.157,0.485,0.341,0.692,0.546c1.778,1.118,5.182,1.889,6.853,2.807
			c0.809,0.443,2.97,2.102,4.497,1.75c0.521,0.564,0.96,1.207,2.25,0.999c0.315,0.616,1.858,1.293,2.248,1
			c1.72,1.453,0.909,0.514-1.247,0.499c-4.285-2.094-9.21-4.104-13.839-5.932c0.211,0.494,0.322,1.045,0.294,1.641
			c-0.163,3.431-0.167,6.934-0.909,10.258c-0.852,3.813-0.241,7.473,0.154,11.174c0.276,2.631,0.996,5.215,1.412,7.836
			c0.313,1.955,0.194,4.014,0.728,5.89c0.894,3.119-1.559,7.223-4.633,6.796c-3.613-0.503-4.196,0.356-5.697,4.181
			c-1.153,2.934-0.229,5.113,1.778,7.311c2.176,2.389,5.164,2.572,7.684,0.542c3.277-2.644,6.756-5.048,10.24-7.415
			c1.333-0.905,1.73-1.839,1.646-3.446c-0.186-3.331-0.222-6.698,0.09-10.009c0.098-1.035,1.342-2.423,2.359-2.759
			c0.772-0.257,2.152,0.731,3.004,1.46c0.776,0.662,1.201,1.73,1.787,2.617c1.596,2.421,2.111,5.566,5.584,6.666
			c1.681,0.533,1.582,2.461,0.411,3.945c-1.571,1.986-3.208,3.934-4.664,5.999c-2.522,3.592-4.835,7.33-7.427,10.867
			c-1.581,2.166-3.498,4.088-5.3,6.092c-1.599,1.779-2.368,3.728-2.352,6.219c0.036,4.333-0.122,8.691-0.569,12.997
			c-0.478,4.603-1.438,9.154-2.033,13.749c-0.087,0.652,0.676,1.419,1.059,2.125c0.416,0.763,1.365,1.718,1.17,2.237
			c-0.58,1.497-1.31,3.576-2.531,4.071c-3.659,1.476-7.586,2.291-11.399,3.402c-1.649,0.48-3.306,0.972-4.9,1.6
			c-1.554,0.616-2.081,1.933-0.756,3.039c1.451,1.206,3.217,2.603,4.968,2.79c7.642,0.816,15.327,1.254,23.001,1.731
			c0.77,0.046,1.796-0.392,2.325-0.958c1.057-1.123,0.651-4.834-0.026-6.305c-0.862-1.855-1.588-3.859-1.879-5.87
			c-0.279-1.958,1.017-2.614,2.828-1.741c2.918,1.4,3.526,1.189,3.846-2c0.692-6.914,1.267-13.838,1.755-20.768
			c0.185-2.63,0.574-5.204,2.736-6.835c5.023-3.782,10.165-7.411,15.362-10.956c0.775-0.528,2.459-0.733,3.124-0.259
			c4.632,3.326,9.222,6.74,13.605,10.389c3.897,3.236,7.54,6.791,11.256,10.246c2.459,2.284,4.974,2.967,8.464,2.072
			c5.523-1.408,11.243-2.057,16.9-2.915c2.513-0.38,4.395,0.545,5.508,3.067c0.717,1.625,1.928,3.023,2.867,4.553
			c2.772,4.524,7.478,7.456,9.67,12.574c2.407,5.607,1.318,8.864-4.443,11.16c-1.99,0.792-3.995,1.978-5.496,3.479
			c-2.144,2.148-0.891,5.207,2.138,5.593c1.442,0.185,3.069,0.33,4.378-0.147c6.821-2.48,13.645-5.006,20.317-7.857
			c3.213-1.376,3.577-3.979,1.421-6.843c-2.064-2.741-4.102-5.534-6.454-8.015c-3.473-3.665-5.79-7.854-7.018-12.717
			c-0.998-3.95-0.88-8.347-4.977-11.021c-1.028-0.667-0.478-2.178,0.996-2.147c2.767,0.054,5.62,0.028,8.273,0.692
			c3.95,0.994,7.689,2.842,11.647,3.799c4.841,1.168,8.013,4.207,10.687,8.063c0.698,1.012,1.361,2.054,2.115,3.019
			c3.935,5.027,9.198,7.584,15.496,7.527c6.791-0.064,13.571-0.585,20.363-0.9c4.506-0.208,6.755,1.629,8.397,5.823
			c1.573,4.012,3.634,7.841,5.646,11.661c0.365,0.685,1.761,1.491,2.27,1.277c0.771-0.324,1.488-1.44,1.663-2.332
			c0.281-1.422,0.174-2.936,0.098-4.406c-0.326-6.514-0.58-13.04-1.114-19.541c-0.21-2.551-2.546-3.791-5.079-3.105
			c-1.021,0.277-2.056,0.629-2.978,1.14c-2.574,1.424-5.249,1.414-7.819,0.318c-2.236-0.953-4.513-2.054-6.381-3.569
			c-2.741-2.221-5.666-2.947-9.104-2.834c-2.07,0.069-4.186-0.457-6.241-0.904c-2.194-0.475-3.021-2.02-2.81-4.217
			c0.205-2.117,0.451-4.242,0.44-6.364c0-0.369-0.17-0.737-0.385-1.106c0.627-2.481,1.031-4.979,0.772-7.488
			c0.095-1.728,0.227-3.457,0.475-5.164c0.493-3.318,0.701-6.478-1.976-9.152c-0.544-0.543-0.489-1.684-0.714-2.551
			c-0.344-1.34-0.428-2.825-1.078-3.999c-2.33-4.192-4.936-8.237-7.278-12.426c-2.13-3.813-6.565-6.742-4.895-12.076
			c0.321-1.021,0.77-2.699,1.353-2.788c1.071-0.158,2.546,0.342,3.392,1.087c3.876,3.399,7.566,7.007,11.377,10.479
			c1.913,1.741,2.257,2.841,0.588,4.766c-1.949,2.253-1.985,4.786-1.588,7.407c0.449,2.959,3.19,4.109,5.695,2.525
			c0.552-0.346,1.16-0.641,1.635-1.083c1.588-1.474,3.377-1.586,5.466-1.378c1.777,0.18,3.943,0.18,5.378-0.678
			c4.758-2.83,10.896-2.682,14.484,1.578c2.756,3.271,6.149,5.01,9.902,6.432c1.709,0.646,2.392,1.784,2.885,3.56
			c0.923,3.353,2.335,6.568,3.566,9.827c0.354,0.934,1.048,1.803,1.155,2.752c0.251,2.181,1.447,2.744,3.391,2.474
			c3.539-0.487,4.012-0.236,5.23,3.098c0.216,0.591,1.768,5.575,1.947,6.285c0.4,1.573,0.671,3.19,1.202,4.715
			c0.724,2.065,1.287,4.33,2.56,6.029c2.588,3.451,5.523,6.659,8.506,9.785c0.723,0.755,2.278,1.288,3.29,1.091
			c2.353-0.467,3.842,0.561,5.49,1.935c4.324,3.61,8.692,7.176,13.199,10.557c2.36,1.772,3.29,3.032,2.281,5.645
			c-0.811,2.098-2.251,3.945-3.311,5.958c-0.5,0.954-0.764,2.035-1.136,3.061c1.175-0.142,2.401-0.128,3.51-0.479
			c0.616-0.195,1.01-1.027,1.55-1.522c1.683-1.534,3.223-3.293,5.108-4.517c4.323-2.804,4.733-5.306,1.156-9.047
			c-3.245-3.393-6.518-6.761-9.696-10.218c-0.693-0.751-1.223-1.775-1.483-2.764c-0.231-0.868-0.329-2.166,0.153-2.711
			c0.425-0.478,1.74-0.299,2.644-0.213c4.135,0.385,8.257,0.901,12.391,1.235c1.525,0.125,2.393-0.733,2.467-2.387
			c0.136-2.97,1.863-5.701,3.819-6.232c2.337-0.633,5.546,1.065,7.168,3.681c0.637,1.035,1.319,2.148,2.261,2.844
			c0.814,0.602,2.24,1.152,3.011,0.829c0.57-0.243,1.232-0.843,1.656-1.474c0.016-0.27,0.232-0.342,0.243-0.618
			c-0.563,0.593-0.544-0.514-1.245-0.498c0.531-0.544-0.069-0.536-0.752-0.501c0.585-0.164,1.349,0.01,2.151,0.104
			c-0.052-0.627-0.143-1.258-0.262-1.891c-3.244-0.203-6.072-2.529-8.886-3.71c3.181,0.009,5.831,2.411,8.848,3.517
			c-0.256-1.273-0.647-2.521-1.266-3.594c-1.371-2.384-3.342-4.429-5.119-6.57c-2.483-3.002-5.343-3.202-8.094-0.594
			c-2.273,2.149-4.866,3.664-8.069,3.628c-2.977-0.031-3.785-2.772-5.31-4.597c-1.173-1.406-2.554-2.131-4.264-2.018
			c-0.549-0.497-1.151-0.982-1.809-1.475c-4.427-4.629-8.984-8.773-13.451-13.01c-1.102-1.048-2.007-2.366-2.762-3.695
			c-0.908-1.598-1.206-3.758,0.422-4.661c1.287-0.711,3.744-0.737,4.942,0.053c4.84,3.184,9.354,6.858,14.09,10.207
			c0.837,0.594,2.231,0.862,3.236,0.655c2.497-0.512,4.545,0.074,6.468,1.386c-0.018,0.309-0.033,0.613-0.055,0.923
			c-1.76,0-3.521-0.026-5.275,0.017c-0.529,0.013-1.144,0.104-1.531,0.405c-0.179,0.136-0.04,0.92,0.165,1.296
			c0.893,1.614,4.492,2.528,6.729,1.687c2.184-0.824,1.968-2.516,1.792-4.471c-0.009-0.102-0.034-0.184-0.047-0.279
			c-2.063-1.333-4.354-2.438-6.39-3.802c0.049-0.282,0.252-0.138,0.252,0c0.315-0.061,0.251-0.495,0-0.497
			c0.41-0.556,1.473,0.349,2.001,0.497c0.106,0.523-0.174,0.662-0.249,1.001c0.974-0.418,2.858,1.151,4.315,2.385
			c-0.47-2.24-2.117-2.983-4.13-3.668c-0.852-0.292-1.775-0.571-2.627-0.935c-0.64,0.085-1.522-0.496-1.996-1.257
			c-0.032-0.031-0.069-0.058-0.1-0.091c-0.148-0.158-0.287-0.325-0.434-0.484c-0.714,0.438-2.075-0.781-2.278-1.699
			c-1.315,0.233-1.319-0.845-2.247-1.001c0.106-0.305,0.317-0.511,0.748-0.498c-1.125-1.381-3.899-0.98-4.25-1.999
			c-0.246-0.705,1.653-0.804,0.251-1.499c0.35-0.885,1.037,1.25,1.501,0.249c0.543,1.013,1.841,1.952,3.188,2.863
			c-1.547-1.896-3.036-3.845-4.505-5.802c-0.683-0.907-1.385-1.782-2.113-2.621c-2.088-1.609-4.107-3.285-6.05-5.039
			c-0.545-0.287-1.116-0.542-1.708-0.769c-0.027,0.035-0.056,0.068-0.064,0.121c0.006-0.056-0.016-0.102-0.019-0.155
			c-0.668-0.252-1.363-0.471-2.099-0.635c-5.559-1.242-11.123-2.465-16.631-3.889c-1.055-0.272-2.22-1.296-2.672-2.279
			c-0.31-0.664,0.3-2.467,0.906-2.697c1.253-0.479,2.94-0.677,4.145-0.205c2.02,0.787,3.853,2.109,5.669,3.341
			c2.072,1.406,4.275,2.097,6.617,2.066c-0.104-0.048-0.234-0.071-0.413-0.044c-0.233-0.461,1.435-0.153,0.502-0.5
			c-0.036-0.59,0.974,0.361,0.607,0.51c0.492-0.037,0.991-0.092,1.496-0.191c0.534-0.104,1.185-0.563,1.389-1.031
			c0.123-0.281-0.229-1.034-0.578-1.292c-0.218,0.423-0.658,0.072-1.165,0.006c0.065-0.226,0.05-0.369,0.007-0.484
			c-1.838-0.729-3.703-1.388-5.54-2.108c-2.39-0.934-4.784-1.873-7.109-2.945c-0.429-0.195-0.907-1.223-0.747-1.554
			c0.086-0.168,0.234-0.349,0.406-0.517c-0.536-0.268-0.75-0.852-1.263-1.139c0.16-0.213,1.157,0.357,1.432,0.986
			c0.347-0.289,0.754-0.499,1.03-0.444c2.376,0.459,4.706,1.149,7.054,1.76c2.903,0.755,5.796,1.556,8.72,2.202
			c0.209,0.047,0.479-0.07,0.742-0.248c-0.629-0.77-1.26-1.43-1.984-1.756c-0.487-1.08-1.188-2.158-1.988-3.242
			c-1.909-0.908-3.95-1.779-5.988-1.95c-2.752-0.23-5.565,0.405-8.359,0.537c-1.04,0.051-2.177-0.085-3.119-0.485
			c-0.569-0.244-1.309-1.602-1.201-1.711c1.887-1.936,0.242-3.193-0.601-4.823c-3.552-6.907-9.975-9.78-17.61-7.663
			c-4.707,1.306-6.193,4.368-4.52,8.977c0.459,1.261,0.506,2.68,0.661,4.033c0.22,1.885,0.014,3.905,0.614,5.65
			c1.345,3.906-0.503,6.747-4.674,6.691c-4.34-0.06-8.708,0.203-13.004-0.239c-4.226-0.437-9.332,0.558-11.418-4.997
			c-0.055-0.138-0.234-0.223-0.348-0.341c-6.724-6.927-13.494-13.808-20.146-20.805c-2.81-2.954-5.598-5.974-6.558-10.196
			c-0.192-0.857-0.972-1.778-1.737-2.275c-3.552-2.318-7.088-4.688-10.825-6.672c-3.528-1.87-7.281-3.325-10.967-4.894
			c-2.556-1.089-3.118-3.218-1.203-4.917c0.515-0.457,0.93-0.909,1.27-1.357c-0.04-0.22-0.057-0.464-0.035-0.744h0.526
			c1.221-2.219,0.226-4.234-2.998-5.649c-2.51-1.101-5.125-1.966-7.704-2.907c-1.794-0.658-3.14-1.566-3.306-3.758
			c-0.255-3.329-1.212-3.95-4.497-4.735c-1.699-0.408-3.308-1.546-4.732-2.644c-1.21-0.932-2.099-2.281-3.121-3.454
			c-0.722-0.827-1.447-1.479-2.315-1.604c-0.612-0.093-3.644-1.766-6.508-2.451c-4.646-1.113-9.195,0.778-13.222,2.96
			c-3.106,1.681-4.883,4.632-4.683,8.54c0.293,5.662,3.026,11.101,1.406,16.952c-0.374,1.355,0.523,2.218,2.064,1.694
			c1.862-0.634,2.51,0.338,3.287,1.884c1.117,2.21,2.554,4.301,4.113,6.223c1.166,1.433,2.542,1.214,4.045-0.056
			c0.976-0.829,2.563-1.492,3.772-1.353c1.891,0.216,2.94,1.632,3.271,3.733c0.473,2.976,0.919,6.081,2.174,8.761
			c1.398,2.997,1.732,5.823,1.35,9.015c-0.254,2.107,0.29,4.3,0.304,6.455c0.002,0.788-0.334,1.693-0.794,2.352
			c-1.706,2.443-1.119,6.67,0.945,8.795c0.697,0.716,1.144,2.641,0.688,3.367c-3.742,5.913-7.217,12.055-14.337,14.906
			c-1.391,0.56-2.146,3.227-2.694,5.068c-0.189,0.635,0.935,2.126,1.786,2.536c4.107,1.972,6.506,1.093,8.557-3.033
			c1.606-3.229,3.649-5.544,7.536-6.253c3.315-0.605,7.108-0.511,9.347-4.047c1.121-1.775,2.93-2.335,4.922-1.155
			c2.436,1.453,3.291,3.378,2.186,5.782c-0.729,1.6-1.797,3.132-3.023,4.387c-3.762,3.86-7.848,7.414-11.479,11.387
			c-0.451,0.496-1.017,1.158-1.641,1.913c-0.384,0.461-0.762,0.924-1.134,1.398c-3.412,4.266-7.857,10.322-8.232,11.5
			c-0.096,0.228-0.195,0.45-0.273,0.699c-2.135,0.004-4.267,0.081-6.4,0.161c-1.658,0.066-3.311,0.134-4.969,0.156
			c-0.915,0.01-2.232-0.092-2.686-0.673c-1.206-1.534-2.041-3.362-3.247-5.464c1.782,0.186,3.247,0.336,4.716,0.491
			c0.13-0.362,0.297-0.594,0.273-0.804c-0.041-0.482-0.098-0.99-0.287-1.429c-0.028-0.065-0.05-0.134-0.077-0.199
			c-0.151-0.016-0.292-0.021-0.39,0.016c0.04-0.292-0.057-0.443-0.253-0.499c0.091-0.191,0.214-0.262,0.352-0.266
			c-1.768-5.033-1.1-10.945-5.411-15.065c-0.21-0.204-0.278-0.59-0.359-0.905c-0.955-3.717-1.887-7.436-2.851-11.147
			c-0.934-3.6-2.422-6.673-6.308-8.126c-1.186-0.44-2.382-1.804-2.843-3.022c-0.675-1.792-0.862-3.818-0.949-5.762
			c-0.109-2.395-1.103-4.268-3.213-5.1c-5.499-2.169-7.51-7.273-10.277-11.739c-0.76-1.222-0.421-2.562,1.242-2.746
			c2.017-0.224,4.132-0.468,6.077-0.074c1.442,0.289,2.875,1.382,3.973,2.467c2.023,1.99,3.645,4.4,5.711,6.338
			c3.154,2.964,6.609,5.615,9.808,8.542c0.813,0.75,1.56,2.017,1.604,3.08c0.105,2.48,1.429,4.072,3.079,5.618
			c3.114,2.917,6.957,1.554,10.515,1.742c0.503,0.028,1.392-1.145,1.556-1.884c0.709-3.198-1.165-6.633-4.219-8.011
			c-1.194-0.539-2.392-1.137-3.655-1.422c-1.906-0.429-2.907-1.637-3.613-3.315c-4.045-9.619-9.732-18.15-17.241-25.393
			c-1.161-1.119-2.86-1.94-4.446-2.317c-1.473-0.35-2.948-0.685-4.425-1.019c-0.283,0.264-0.652,0.443-1.339,0.303
			c-0.066-0.287-0.242-0.465-0.369-0.693c-5.697-1.275-11.41-2.485-17.098-3.804C291.214,201.999,290.252,201.092,289.2,200.512z
			 M259.316,185.762c-0.221,0.952-2.12,0.217-2.752,0.752C256.985,185.768,258.263,185.881,259.316,185.762z M245.321,210.756
			c-0.627-0.126-0.835-0.665-1.502-0.75C243.378,209.775,246.257,209.657,245.321,210.756z M250.566,215.255
			c0.038-0.293-0.053-0.444-0.249-0.501c0.047-0.282,0.249-0.139,0.249,0c0.244-0.008,0.193-0.306,0.25-0.501
			c0.367,0.219,0.795,0.375,0.754,1.002H250.566z M249.317,194.26c0.687-0.002,0.121-1.624,0.503-0.498
			c1.473,0.506,5.107-0.629,5.748,1.25C253.911,194.584,251.731,194.497,249.317,194.26z M254.065,209.505
			c-0.107,0.373-0.318-0.097-0.75,0c-0.069-0.65,0.093-1.072,0.75-1C254.305,208.971,253.315,209.34,254.065,209.505z
			 M255.815,197.507h-0.501c0.938-0.618-1.162-0.737-1.249-0.247c-0.857-0.935,1.735-0.276,1.249-0.752
			c0.226-0.674,0.561,0.57,1.001,0.504C256.203,197.233,256.095,197.456,255.815,197.507z M259.065,197.761
			c0.097-0.855-1.136-0.121-1.751-0.749c-0.768-0.748,1.108,0.656,0.749-0.504c0.526,1.225,3.782-0.279,4.251,0.999
			C260.489,197.383,260.439,197.184,259.065,197.761z M263.062,220.003c-0.077-0.66,0.522-0.646,0.997-0.75
			c-0.036,0.29,0.059,0.444,0.253,0.498C263.935,220.334,263.702,220.133,263.062,220.003z M271.06,252.489
			c-0.442-0.459-2.404,0.018-2.998-1.996c0.426,0.01,0.646-0.188,0.75-0.504c0.199,0.175,0.683,0.391,0.749,0
			c0.186,0.413,1.234,1.237,1.499,0.75c0.358,0.057,0.087,0.746,0.501,0.752C270.931,251.929,271.383,251.903,271.06,252.489z
			 M286.302,232.497c-0.45,0.032-0.527-0.307-0.998-0.252c-0.186-0.934,0.957-0.544,0.998-1.247
			C287.003,231.249,286.238,232.06,286.302,232.497z M543.011,305.412c0.07,0.658,0.085,1.253-0.746,1.001
			c0.134-0.199,0.262-0.405,0.251-0.749h-0.503C542.09,305.325,542.64,305.458,543.011,305.412z M541.264,306.413
			c-0.475-0.107-0.626-0.539-1.249-0.498C540.011,305.178,541.531,305.448,541.264,306.413z M530.519,304.165
			c0.893-0.146,1.208,0.291,1.75,0.501C532.112,305.229,529.181,303.554,530.519,304.165z M501.777,305.412
			c0.62-0.035,0.775,0.395,1.252,0.501v1.499c-0.201-0.129-0.405-0.259-0.753-0.247c-0.03-0.448,0.31-0.528,0.25-1
			c-0.252,0.162-0.257,0.574-0.749,0.5C501.308,306.187,501.75,306.036,501.777,305.412z M511.526,270.929
			c0.378-0.681,1.076,0.396,1.502,0.497C512.443,272.309,511.909,271.068,511.526,270.929z M503.276,263.427
			c0.416,1.419,1.612,2.059,3.002,2.501c-0.903,0.499,1.386,1.56,1.997,0.75c0.307,1.887,1.36,1.598,2.5,2.749
			c0.395-1.234,1.36,0.398,1.75-0.248c0.31,1.38,2.808,1.835,2.248,3.746c0.098-0.336-1.846-0.198-0.252,0.249
			c-0.123,0.426-1.303-0.166-0.998-0.998c0.229-0.195,0.566-0.268,0.998-0.249c-0.482-1.017-1.939-1.061-2.244-2.251
			c-0.172,0.582-1.138,0.367-1.251,1c-1.899-1.051-5.482-3.418-6.996-4.998c-0.367-0.378-0.151-0.633-0.501-0.998
			c-0.588-0.619-1.588,0.092-1.752-0.999c1.272,0.398-0.493-0.437-0.998-0.501C501.263,262.581,502.021,263.5,503.276,263.427z
			 M497.783,290.17c0.473,0.467,0.624,0.028,1.247,0c-0.313,0.529-1.277,1.148-1.75,0.752
			C497.372,290.593,497.716,290.527,497.783,290.17z M500.029,254.683c-1.029,0.503,0.295,0.815,0.5,1.501
			c0.395,0.238-1.784-0.97-1.75-2.002C499.579,253.967,499.554,254.576,500.029,254.683z M498.53,254.186
			c-0.585-0.083-0.242-1.092-0.747-1.253C498.127,252.281,499.271,253.684,498.53,254.186z M482.785,269.179
			c0.467-0.489,1.011-0.172,1.253,0.248C484.078,269.836,482.399,269.933,482.785,269.179z M381.267,195.51
			c0.555-0.426,2.035-0.186,1.999,0.749c-0.546,0.553-1.019-0.249-1.999,0V195.51z M378.269,261.734
			c-0.084,0.505,0.049,0.784,0.501,0.748c-0.367,0.671-1.37-0.102-1.25-0.748H378.269z M336.037,180.265v-1.247
			c0.291,0.205,0.669,0.328,1.249,0.249C337.46,180.188,336.891,180.371,336.037,180.265z M365.525,276.98
			c0.477,0.21,0.677,1.097,0.252,1.499C365.08,278.228,365.455,277.468,365.525,276.98z M331.537,279.481
			c0.025,1.336-1.363,0.39-1.25-0.501C331.059,278.79,330.591,279.84,331.537,279.481z M329.539,276.229
			c0.333,0.167,0.462,0.536,0.498,1.004h-1.252C328.57,276.426,329.612,276.885,329.539,276.229z M315.541,237.993
			c-0.426,0.093-0.469-0.192-0.497-0.498c-0.293,0.039-0.211,0.455-0.252,0.75c-0.517-0.066-0.057-1.106-0.75-0.998
			C313.628,236.976,315.609,236.829,315.541,237.993z M301.55,285.977c0.688,0.386,0.022,1.501-0.252,1.75
			C300.611,287.339,301.272,286.225,301.55,285.977z M299.049,217.251c0.681,0.023,0.503-0.416,0.999,0v0.504
			c-0.496,0.415-0.318-0.023-0.999,0V217.251z M297.548,236.245c0.547-0.045,0.798,0.204,0.753,0.75
			c-0.448-0.069-0.514,0.236-0.252,0.252C297.537,237.898,297.182,236.719,297.548,236.245z M294.553,233.245h0.996
			c0.437,0.887-0.167,0.619-0.249,1.502c-0.197-0.133-0.403-0.262-0.747-0.252C295.02,234.02,294.404,234.044,294.553,233.245z"/>
	</g>
	<g>
		<polygon style="fill:#FFFFFF;" points="186.962,377.567 181.076,378.089 185.616,381.867 184.293,387.621 189.289,384.472 
			194.353,387.511 192.901,381.784 197.355,377.907 191.463,377.517 189.15,372.084 		"/>
		<path style="fill:#FFFFFF;" d="M177.404,380.849c0,6.514,5.3,11.81,11.811,11.81c6.514,0,11.811-5.296,11.811-11.81
			s-5.297-11.814-11.811-11.814C182.704,369.034,177.404,374.335,177.404,380.849z M200.23,380.849
			c0,6.074-4.939,11.016-11.015,11.016c-6.072,0-11.012-4.941-11.012-11.016c0-6.073,4.939-11.016,11.012-11.016
			C195.29,369.833,200.23,374.775,200.23,380.849z"/>
		<polygon style="fill:#FFFFFF;" points="374.539,384.754 374.545,387.407 383.952,387.407 383.952,382.167 381.841,382.167 
			381.196,384.754 379.784,384.754 379.784,378.021 380.924,378.021 380.924,375.418 374.509,375.418 374.509,378.021 
			375.594,378.021 375.594,384.754 		"/>
		<polygon style="fill:#FFFFFF;" points="372.971,378.021 372.971,375.41 366.583,375.41 366.583,378.021 367.64,378.021 
			367.64,384.752 366.555,384.752 366.555,387.407 372.927,387.407 372.927,384.752 371.886,384.752 371.886,378.021 		"/>
		<path style="fill:#FFFFFF;" d="M298.178,383.407c0.039,0.371,0.105,0.741,0.2,1.119c0.098,0.371,0.222,0.711,0.373,1.01
			c0.154,0.301,0.349,0.584,0.59,0.851c0.243,0.267,0.523,0.487,0.842,0.667c0.316,0.174,0.692,0.315,1.135,0.416
			c0.437,0.1,0.926,0.151,1.463,0.151c0.845,0,1.63-0.169,2.355-0.503c0.734-0.337,1.325-0.816,1.776-1.445
			c0.454-0.629,0.681-1.332,0.681-2.11v-5.542h1.136v-2.603H303.9v2.603h1.211v5.425c0,0.435-0.13,0.775-0.385,1.026
			c-0.257,0.252-0.613,0.377-1.066,0.377c-0.255,0-0.479-0.054-0.669-0.163c-0.189-0.108-0.333-0.255-0.436-0.44
			c-0.1-0.184-0.174-0.382-0.22-0.592c-0.047-0.213-0.073-0.438-0.073-0.683v-4.95h1.094v-2.603h-6.421v2.603h1.191v4.183
			C298.125,382.637,298.14,383.037,298.178,383.407z"/>
		<path style="fill:#FFFFFF;" d="M359.109,384.754v2.653h5.939v-2.653h-1.14v-6.733h1.085v-2.61h-5.792l-2.044,5.669l-2.288-5.669
			h-6.176l0.01,2.61h1.234v4.893v0.372c0,0.082-0.006,0.189-0.012,0.326c-0.006,0.134-0.016,0.233-0.031,0.298
			c-0.018,0.065-0.038,0.146-0.064,0.244c-0.027,0.099-0.062,0.172-0.101,0.218c-0.04,0.047-0.089,0.1-0.153,0.162
			c-0.059,0.057-0.131,0.097-0.21,0.123c-0.077,0.024-0.17,0.046-0.28,0.066c-0.108,0.019-0.229,0.03-0.362,0.03v2.653h4.815v-2.653
			c-0.133,0-0.257-0.01-0.364-0.028c-0.107-0.016-0.2-0.035-0.279-0.057c-0.081-0.022-0.147-0.059-0.208-0.107
			c-0.057-0.052-0.109-0.092-0.149-0.126c-0.038-0.035-0.072-0.089-0.098-0.166c-0.025-0.077-0.048-0.136-0.059-0.18
			c-0.014-0.041-0.023-0.111-0.031-0.206c-0.007-0.095-0.013-0.166-0.013-0.21v-0.221v-3.431l3.077,7.385h2.077l2.527-7.221v4.567
			H359.109z"/>
		<path style="fill:#FFFFFF;" d="M317.061,386.071c0.04,0.172,0.089,0.317,0.149,0.441c0.061,0.123,0.14,0.23,0.245,0.328
			c0.108,0.098,0.208,0.174,0.306,0.236c0.096,0.062,0.221,0.112,0.375,0.158c0.156,0.045,0.29,0.08,0.403,0.101
			c0.115,0.022,0.261,0.039,0.448,0.049c0.183,0.008,0.332,0.016,0.441,0.019c0.113,0.002,0.265,0.002,0.454,0.002h1.938v-2.653
			c-0.275,0-0.495-0.016-0.662-0.046c-0.161-0.031-0.287-0.088-0.366-0.166c-0.078-0.073-0.129-0.153-0.149-0.238
			c-0.023-0.084-0.032-0.196-0.032-0.341v-0.686c0-0.454-0.157-0.831-0.476-1.132c-0.314-0.301-0.84-0.533-1.573-0.703
			c0.847-0.156,1.501-0.464,1.963-0.921c0.46-0.462,0.693-1.047,0.693-1.764c0-0.603-0.092-1.126-0.274-1.56
			c-0.185-0.437-0.454-0.786-0.804-1.043c-0.354-0.259-0.76-0.446-1.227-0.563c-0.467-0.121-1.004-0.18-1.606-0.18h-7.505v2.61
			h1.145v6.731h-1.137v2.663c2.692-0.008,4.686-0.01,5.988-0.01v-2.653h-0.894v-2.475h0.724c0.295,0,0.536,0.041,0.724,0.126
			c0.185,0.084,0.326,0.213,0.416,0.387c0.092,0.176,0.153,0.36,0.185,0.556c0.031,0.194,0.049,0.435,0.049,0.728v1.44
			C317.001,385.716,317.022,385.904,317.061,386.071z M316.572,380.348c-0.179,0.095-0.374,0.159-0.58,0.2
			c-0.202,0.038-0.431,0.059-0.683,0.059h-0.451v-2.586h0.893c0.441,0,0.785,0.117,1.031,0.352c0.25,0.232,0.375,0.543,0.375,0.934
			c0,0.246-0.052,0.459-0.156,0.634C316.898,380.119,316.757,380.255,316.572,380.348z"/>
		<path style="fill:#FFFFFF;" d="M341.814,387.405h6.107v-2.651h-0.634c-0.075,0-0.14-0.03-0.193-0.095
			c-0.054-0.059-0.098-0.131-0.123-0.21c-0.025-0.077-0.06-0.196-0.098-0.347l-2.27-8.69h-7.35v2.608h1.568l-1.27,5.017
			c-0.133,0.518-0.228,0.837-0.28,0.955c-0.161,0.372-0.436,0.608-0.822,0.7c-0.166,0.041-0.359,0.061-0.576,0.061v2.651h5.013
			v-2.651h-0.622c-0.104,0-0.182-0.09-0.236-0.267c-0.053-0.178-0.081-0.333-0.081-0.475c0.003-0.103,0.007-0.18,0.013-0.236
			c0.006-0.051,0.025-0.105,0.063-0.157c0.032-0.053,0.081-0.079,0.146-0.079h2.032c0.332,0,0.495,0.406,0.495,1.214h-0.887
			L341.814,387.405z M340.366,381.692l0.83-3.755l0.861,3.755H340.366z"/>
		<polygon style="fill:#FFFFFF;" points="391.426,378.021 391.426,375.41 385.041,375.41 385.041,378.021 386.098,378.021 
			386.098,384.752 385.011,384.752 385.011,387.407 391.383,387.407 391.383,384.752 390.343,384.752 390.343,378.021 		"/>
		<path style="fill:#FFFFFF;" d="M266.235,387.405h2.041v-6.37h-4.619v2.248l1.185,0.006c0.039,0.144,0.057,0.344,0.057,0.599
			c0,0.361-0.139,0.643-0.421,0.854c-0.282,0.21-0.61,0.315-0.982,0.315c-1.553,0-2.327-1.089-2.327-3.263
			c0-0.31,0.007-0.593,0.026-0.854c0.018-0.257,0.055-0.544,0.111-0.855c0.057-0.313,0.139-0.59,0.246-0.828
			c0.113-0.238,0.251-0.463,0.418-0.667c0.168-0.208,0.389-0.367,0.652-0.479c0.265-0.109,0.572-0.166,0.916-0.166
			c0.314,0,0.583,0.043,0.816,0.136c0.234,0.093,0.424,0.208,0.562,0.348c0.142,0.143,0.26,0.327,0.357,0.561
			c0.103,0.23,0.174,0.451,0.221,0.665c0.046,0.21,0.087,0.467,0.123,0.767h2.128v-5.013h-2.328l-0.329,0.459
			c-0.628-0.449-1.447-0.673-2.458-0.673c-0.944,0-1.791,0.167-2.553,0.503c-0.764,0.337-1.387,0.794-1.875,1.374
			c-0.489,0.579-0.862,1.254-1.121,2.02c-0.259,0.765-0.388,1.583-0.388,2.461c0,0.758,0.107,1.461,0.316,2.111
			c0.208,0.65,0.503,1.217,0.883,1.697c0.38,0.48,0.831,0.891,1.35,1.232c0.523,0.338,1.104,0.595,1.737,0.768
			c0.637,0.174,1.312,0.259,2.025,0.259c1.234,0,2.207-0.319,2.921-0.96L266.235,387.405z"/>
		<polygon style="fill:#FFFFFF;" points="432.573,372.084 430.385,377.567 424.5,378.089 429.037,381.867 427.718,387.621 
			432.713,384.472 437.778,387.511 436.323,381.784 440.776,377.907 434.887,377.517 		"/>
		<path style="fill:#FFFFFF;" d="M432.64,369.034c-6.514,0-11.811,5.301-11.811,11.814s5.297,11.81,11.811,11.81
			c6.512,0,11.811-5.296,11.811-11.81S439.151,369.034,432.64,369.034z M432.64,391.864c-6.074,0-11.015-4.941-11.015-11.016
			c0-6.073,4.94-11.016,11.015-11.016c6.072,0,11.014,4.942,11.014,11.016C443.653,386.923,438.712,391.864,432.64,391.864z"/>
		<path style="fill:#FFFFFF;" d="M293.434,375.928c-0.909-0.492-1.941-0.741-3.096-0.741c-1.171,0-2.213,0.249-3.121,0.741
			c-0.909,0.493-1.627,1.214-2.155,2.169c-0.534,0.954-0.799,2.065-0.799,3.336c0,1.16,0.265,2.213,0.799,3.158
			c0.528,0.945,1.255,1.688,2.182,2.227c0.926,0.533,1.952,0.804,3.084,0.804c1.127,0,2.153-0.271,3.08-0.804
			c0.926-0.539,1.655-1.281,2.187-2.227c0.529-0.945,0.792-1.998,0.792-3.158c0-1.27-0.263-2.382-0.792-3.336
			C295.063,377.142,294.341,376.421,293.434,375.928z M291.878,381.064v0.26v0.221c0.005,0.17,0.005,0.346,0,0.533
			c-0.006,0.188-0.01,0.38-0.02,0.576c-0.006,0.191-0.021,0.384-0.054,0.576c-0.028,0.195-0.065,0.377-0.111,0.56
			c-0.045,0.18-0.105,0.347-0.184,0.498c-0.077,0.154-0.17,0.285-0.277,0.4c-0.107,0.113-0.236,0.202-0.386,0.267
			c-0.157,0.061-0.329,0.093-0.519,0.093c-0.169,0-0.323-0.026-0.467-0.074c-0.144-0.055-0.264-0.124-0.368-0.216
			c-0.099-0.09-0.189-0.2-0.268-0.326c-0.077-0.123-0.144-0.262-0.189-0.41c-0.052-0.147-0.096-0.307-0.134-0.473
			c-0.036-0.167-0.061-0.337-0.075-0.511c-0.017-0.17-0.026-0.344-0.043-0.522c-0.01-0.172-0.016-0.343-0.01-0.505
			c0.005-0.162,0.005-0.318,0-0.467v-0.221v-0.26c-0.01-0.151-0.01-0.314,0-0.485c0.005-0.174,0.01-0.352,0.015-0.528
			c0.006-0.183,0.026-0.362,0.057-0.542c0.031-0.179,0.066-0.352,0.11-0.518c0.043-0.162,0.104-0.315,0.183-0.457
			c0.082-0.139,0.175-0.263,0.279-0.37c0.103-0.104,0.233-0.188,0.388-0.248c0.157-0.057,0.331-0.088,0.523-0.088
			c0.216,0,0.411,0.038,0.583,0.116c0.172,0.073,0.31,0.18,0.418,0.314c0.104,0.133,0.194,0.287,0.275,0.467
			c0.079,0.174,0.136,0.363,0.169,0.561c0.031,0.198,0.059,0.397,0.079,0.608c0.021,0.208,0.031,0.413,0.026,0.61
			C291.872,380.701,291.872,380.887,291.878,381.064z"/>
		<path style="fill:#FFFFFF;" d="M282.017,379.314c0.119-0.221,0.206-0.383,0.263-0.478c0.057-0.099,0.133-0.211,0.236-0.345
			c0.095-0.133,0.189-0.225,0.279-0.273c0.085-0.055,0.197-0.098,0.329-0.139c0.131-0.039,0.279-0.059,0.454-0.059h0.546v-2.603
			h-4.71v2.603h0.17h0.157h0.134c0.053,0,0.095,0.002,0.119,0.01c0.026,0.008,0.063,0.015,0.098,0.025
			c0.036,0.011,0.065,0.025,0.082,0.046c0.017,0.019,0.034,0.042,0.057,0.064c0.016,0.026,0.03,0.057,0.039,0.095
			c0.008,0.034,0.01,0.077,0.01,0.121c0,0.271-0.279,0.834-0.841,1.686c-0.106-0.148-0.329-0.489-0.676-1.023
			c-0.349-0.537-0.575-0.878-0.685-1.023h0.673v-2.603h-6.296v2.603h0.826l3.111,4.418v2.313h-1.146v2.655h6.421v-2.655h-1.156
			v-2.695L282.017,379.314z"/>
		<path style="fill:#FFFFFF;" d="M250.383,387.407h4.481v-8.264c0-0.363,0.087-0.645,0.267-0.836c0.18-0.19,0.479-0.287,0.898-0.287
			v-2.603l-4.709-0.008v2.61c0.195-0.006,0.361,0.004,0.506,0.027c0.141,0.025,0.254,0.072,0.334,0.137
			c0.082,0.068,0.146,0.133,0.195,0.195c0.051,0.06,0.084,0.145,0.102,0.256c0.016,0.11,0.026,0.195,0.026,0.257
			c0.005,0.057,0.005,0.145,0.005,0.264v3.468l-3.664-7.214h-5.432v2.594h1.158v5.336c0,0.188-0.006,0.339-0.014,0.444
			c-0.01,0.107-0.036,0.232-0.077,0.374c-0.043,0.14-0.102,0.247-0.186,0.321c-0.081,0.072-0.198,0.139-0.354,0.192
			c-0.156,0.054-0.35,0.08-0.574,0.08v2.655h4.706v-2.655c-0.415,0-0.718-0.08-0.898-0.244c-0.18-0.159-0.267-0.444-0.267-0.851
			v-2.964L250.383,387.407z"/>
		<polygon style="fill:#FFFFFF;" points="241.853,378.021 241.853,375.41 235.466,375.41 235.466,378.021 236.523,378.021 
			236.523,384.752 235.436,384.752 235.436,387.407 241.809,387.407 241.809,384.752 240.769,384.752 240.769,378.021 		"/>
		<path style="fill:#FFFFFF;" d="M229.625,386.071c0.041,0.172,0.093,0.317,0.15,0.441c0.061,0.123,0.143,0.23,0.249,0.328
			c0.105,0.098,0.204,0.174,0.303,0.236c0.095,0.062,0.221,0.112,0.376,0.158c0.155,0.045,0.289,0.08,0.401,0.101
			c0.115,0.022,0.262,0.039,0.449,0.049c0.185,0.008,0.331,0.016,0.44,0.019c0.117,0.002,0.265,0.002,0.455,0.002h1.938v-2.653
			c-0.275,0-0.495-0.016-0.661-0.046c-0.163-0.031-0.285-0.088-0.368-0.166c-0.076-0.073-0.129-0.153-0.148-0.238
			c-0.023-0.084-0.033-0.196-0.033-0.341v-0.686c0-0.454-0.157-0.831-0.475-1.132c-0.313-0.301-0.84-0.533-1.571-0.703
			c0.845-0.156,1.499-0.464,1.961-0.921c0.462-0.462,0.693-1.047,0.693-1.764c0-0.603-0.093-1.126-0.274-1.56
			c-0.183-0.437-0.453-0.786-0.805-1.043c-0.354-0.259-0.759-0.446-1.227-0.563c-0.467-0.121-1-0.18-1.605-0.18h-7.505v2.61h1.146
			v6.731h-1.137v2.663c2.69-0.008,4.685-0.01,5.985-0.01v-2.653h-0.893v-2.475h0.723c0.296,0,0.54,0.041,0.724,0.126
			c0.188,0.084,0.327,0.213,0.419,0.387c0.093,0.176,0.151,0.36,0.182,0.556c0.034,0.194,0.05,0.435,0.05,0.728v1.44
			C229.566,385.716,229.589,385.904,229.625,386.071z M229.137,380.348c-0.179,0.095-0.374,0.159-0.576,0.2
			c-0.206,0.038-0.435,0.059-0.686,0.059h-0.452v-2.586h0.894c0.44,0,0.785,0.117,1.03,0.352c0.252,0.232,0.376,0.543,0.376,0.934
			c0,0.246-0.051,0.459-0.156,0.634C229.464,380.119,229.322,380.255,229.137,380.348z"/>
		<path style="fill:#FFFFFF;" d="M209.966,384.754v2.653h6.96c0.638,0,1.212-0.059,1.72-0.172c0.508-0.113,0.965-0.287,1.36-0.527
			c0.398-0.24,0.703-0.564,0.922-0.966c0.214-0.408,0.325-0.889,0.325-1.44c0-0.83-0.202-1.514-0.605-2.047
			c-0.405-0.531-0.975-0.903-1.714-1.115v-0.017c0.533-0.2,0.97-0.533,1.303-1c0.34-0.465,0.506-1.004,0.506-1.615
			c0-0.492-0.075-0.921-0.223-1.285c-0.146-0.365-0.35-0.662-0.612-0.893c-0.255-0.232-0.59-0.418-0.994-0.555
			c-0.406-0.142-0.837-0.236-1.293-0.288c-0.458-0.048-0.986-0.076-1.588-0.076l-6.015,0.008v2.603h1.227l-0.005,6.733H209.966z
			 M215.14,378.021h0.929c0.278,0,0.516,0.089,0.72,0.267c0.202,0.176,0.303,0.431,0.303,0.762c0,0.269-0.041,0.493-0.123,0.667
			c-0.081,0.175-0.206,0.303-0.37,0.383c-0.17,0.085-0.339,0.136-0.509,0.164c-0.17,0.028-0.387,0.041-0.646,0.041h-0.303V378.021z
			 M215.14,382.241c0.311-0.004,0.492-0.008,0.547-0.008c0.142,0,0.27,0.006,0.382,0.018c0.113,0.014,0.242,0.045,0.382,0.096
			c0.142,0.052,0.261,0.123,0.357,0.213c0.093,0.085,0.178,0.213,0.242,0.375c0.065,0.165,0.102,0.354,0.102,0.575
			c0,0.123-0.01,0.236-0.028,0.341c-0.017,0.104-0.04,0.192-0.073,0.27c-0.031,0.08-0.07,0.147-0.113,0.214
			c-0.046,0.06-0.098,0.115-0.154,0.155c-0.056,0.045-0.118,0.08-0.185,0.111c-0.072,0.035-0.144,0.059-0.222,0.077
			c-0.077,0.015-0.156,0.03-0.24,0.04c-0.083,0.013-0.17,0.024-0.26,0.028c-0.092,0.006-0.188,0.008-0.282,0.011
			c-0.095,0.002-0.192,0.002-0.289-0.003h-0.165V382.241z"/>
		<polygon style="fill:#FFFFFF;" points="392.925,384.754 392.925,387.407 402.38,387.407 402.38,382.328 400.362,382.328 
			399.898,384.302 399.801,384.754 398.182,384.754 398.182,382.706 399.697,382.706 399.697,380.103 398.182,380.103 
			398.182,378.021 399.758,378.021 400.319,380.253 402.3,380.245 402.3,375.41 392.925,375.41 392.925,378.021 394.095,378.021 
			394.095,384.754 		"/>
		<polygon style="fill:#FFFFFF;" points="333.242,378.021 333.717,380.317 335.811,380.317 335.811,375.412 326.387,375.412 
			326.387,378.021 327.557,378.021 327.557,384.754 326.387,384.754 326.387,387.405 332.869,387.405 332.869,384.754 
			331.735,384.754 331.735,382.655 333.226,382.655 333.226,380.024 331.735,380.024 331.735,378.021 		"/>
		<path style="fill:#FFFFFF;" d="M408.342,385.395c-1.016,0-1.823-0.86-1.789-2.117h-1.978v3.976h1.978v-0.981h0.034
			c0.517,0.757,1.31,1.136,2.341,1.136c1.238,0,3.389-0.689,3.389-3.476c0-4.13-5.385-3.699-5.385-5.592
			c0-0.551,0.482-0.945,1.151-0.945c0.895,0,1.532,0.654,1.686,1.721h1.961v-3.545h-1.961v0.963h-0.034
			c-0.481-0.723-1.221-1.084-2.134-1.084c-1.446,0-3.148,0.913-3.148,3.185c0,3.664,5.178,3.37,5.178,5.503
			C409.631,384.845,409.048,385.395,408.342,385.395z"/>
	</g>
</g>
<image style="display:none;overflow:visible;opacity:0.37;" width="384" height="364" xlink:href="../../Downloads/Browser/uhrturm.jpg"  transform="matrix(0.6046 0 0 0.6046 5.3333 152.267)">
</image>
<g style="display:none;">
	<g style="display:inline;">
		<path style="fill:none;stroke:#FFFFFF;stroke-width:1.5;stroke-linecap:round;stroke-linejoin:round;" d="M111.852,284.187
			c0,0-0.083-0.028-0.083-0.029c0.006-0.016,0.208-2.036,0.21-2.043c0,0-0.062-0.021-0.062-0.021c0,0,0.184-2.035,0.189-2.05
			c0,0-0.041-0.014-0.041-0.014c0,0,0.164-2.045,0.168-2.057c0,0-0.02-0.007-0.02-0.007"/>
		<path style="fill:none;stroke:#FFFFFF;stroke-width:1.5;stroke-linecap:round;stroke-linejoin:round;" d="M192.075,244.45
			c0,0-68.335-23.12-68.209-23.486c0,0,70.133,22.51,70.279,22.084c0.211-0.613-69.362-23.883-69.362-23.883l68.337,21.415
			c0.103-0.298-67.51-22.954-67.42-23.214l65.633,20.484c0.047-0.137-64.72-22.27-64.715-22.283l62.928,19.553
			c0,0-62.102-21.085-62.01-21.352c0.097-0.282,60.977,18.881,60.977,18.881c0.199-0.577-60.25-20.127-60.059-20.68l59.217,18.275
			c0,0-58.421-19.72-58.299-20.074c0,0,57.289,18.155,57.457,17.669c0,0-56.557-19.417-56.539-19.468
			c0,0,55.648,17.205,55.697,17.063c0,0-54.825-18.729-54.779-18.862l53.937,16.457l-53.019-18.256l52.176,15.851
			c0,0-51.302-17.525-51.259-17.65c0.066-0.192,50.348,15.442,50.416,15.245c0.078-0.226-49.583-16.798-49.499-17.044l48.656,14.638
			c0.112-0.324-47.826-16.185-47.739-16.438c0.099-0.287,46.746,14.467,46.896,14.032c0,0-46.098-15.485-45.979-15.832
			c0.043-0.124,45.002,13.816,45.136,13.426l-44.219-15.226c0,0,43.32,12.982,43.376,12.82l-42.459-14.62
			c0.087-0.253,41.616,12.214,41.616,12.214c0.067-0.193-40.832-13.626-40.698-14.014c0.096-0.278,39.856,11.608,39.856,11.608
			l-38.938-13.408c0.082-0.238,37.974,11.356,38.096,11.002c0.066-0.191-37.26-12.566-37.178-12.802
			c0,0,36.332,10.408,36.336,10.396c0.065-0.189-35.418-12.195-35.418-12.195l34.576,9.79c0.093-0.269-33.658-11.589-33.658-11.589
			l32.816,9.184l-31.898-10.983l31.055,8.578c0.096-0.277-30.154-10.331-30.138-10.377c0.005-0.016,29.235,8.146,29.295,7.972
			c0.008-0.022-28.378-9.771-28.378-9.771s27.45,7.614,27.535,7.366c0.047-0.138-26.202-8.847-26.148-9.004
			c0.052-0.151,25.248,6.767,25.306,6.598l-22.872-7.876l22.03,5.47c0,0-19.218-6.478-19.175-6.603l18.333,4.197
			c0.015-0.043-15.526-5.192-15.478-5.33c0.046-0.134,14.636,2.924,14.636,2.924s-11.814-3.961-11.781-4.057l10.939,1.651
			c0.025-0.073-8.091-2.763-8.084-2.784c0.024-0.068,7.242,0.378,7.242,0.378s-4.397-1.482-4.387-1.511"/>
		<path style="fill:none;stroke:#FFFFFF;stroke-width:1.5;stroke-linecap:round;stroke-linejoin:round;" d="M114.41,239.454
			c0.001-0.003-1.785-0.597-1.779-0.613c0.005-0.014,6.767,0.278,6.787,0.222l-5.743-1.977l9.762,1.246
			c0.02-0.059-7.933-2.732-7.933-2.732c0.038-0.11,11.943,2.027,11.952,2c0,0-10.299-3.449-10.269-3.536
			c0,0,14.283,2.82,14.289,2.805c0.043-0.126-13.407-4.5-13.371-4.604c0.018-0.053,17.495,3.909,17.495,3.909
			c0.053-0.154-16.61-5.616-16.578-5.708c0.029-0.085,20.727,5.093,20.749,5.029c0.042-0.121-19.831-6.828-19.831-6.828
			c0.02-0.057,23.983,6.143,23.983,6.143c0.015-0.044-23.065-7.942-23.065-7.942s27.027,7.297,27.059,7.202
			c0,0-26.229-8.749-26.142-9.001c0.005-0.015,31.041,8.573,31.041,8.573s-30.15-10.297-30.124-10.372"/>
		<path style="fill:none;stroke:#FFFFFF;stroke-width:1.5;stroke-linecap:round;stroke-linejoin:round;" d="M127.114,246.633
			c0.034-0.097-20.957-7.216-20.957-7.216c0.077-0.223,25.158,6.547,25.158,6.547c0.003-0.009-19.15-6.426-19.099-6.576
			c0.067-0.196,23.598,6.037,23.606,6.013l-11.865-4.086c0.026-0.077,16.681,3.629,16.681,3.629
			c0.029-0.084-11.354-3.909-11.354-3.909s16.416,3.587,16.432,3.543c0.022-0.065-8.444-2.907-8.444-2.907
			c0.007-0.02,13.131,2.406,13.131,2.406c0.03-0.087-9.777-3.345-9.77-3.364"/>
		<path style="fill:none;stroke:#FFFFFF;stroke-width:1.5;stroke-linecap:round;stroke-linejoin:round;" d="M116.537,260.584
			c0.062-0.179-24.029-8.274-24.029-8.274l28.308,7.632c0.062-0.179-28.569-9.837-28.569-9.837c0.074-0.214,33.961,9.783,34.024,9.6
			c0,0-35.182-11.89-35.113-12.09l40.566,11.853c0.001-0.003-38.506-13.047-38.441-13.236c0.137-0.398,43.801,13.184,43.868,12.99
			c0.085-0.248-41.742-14.373-41.742-14.373c0.001-0.002,47.161,14.147,47.168,14.126c0.133-0.385-45.042-15.509-45.042-15.509
			l49.775,15.024c0,0-47.804-15.961-47.65-16.407l52.383,15.922c0.042-0.122-50.257-17.305-50.257-17.305"/>
		<path style="fill:none;stroke:#FFFFFF;stroke-width:1.5;stroke-linecap:round;stroke-linejoin:round;" d="M96.32,275.401
			l-3.203-1.103c0.009-0.027,10.044,1.343,10.044,1.343s-10.126-3.427-10.107-3.48c0.023-0.068,16.195,3.635,16.249,3.48
			l-16.312-5.617c0,0,23.199,6.036,23.249,5.89l-23.313-8.027c0.077-0.222,29.325,8.181,29.386,8.003
			c0.042-0.123-29.449-10.14-29.449-10.14s35.577,10.185,35.593,10.14c0.101-0.292-35.656-12.277-35.656-12.277
			c0.032-0.092,41.697,12.242,41.697,12.242l-41.76-14.379l47.514,14.245c0,0-47.738-15.915-47.577-16.382
			c0,0,53.211,16.599,53.331,16.248c0.071-0.206-53.395-18.385-53.395-18.385c0.2-0.581,59.149,18.251,59.149,18.251l-59.212-20.388
			"/>
		
			<line style="fill:none;stroke:#FFFFFF;stroke-width:1.5;stroke-linecap:round;stroke-linejoin:round;" x1="112.854" y1="287.857" x2="111.741" y2="287.474"/>
		<path style="fill:none;stroke:#FFFFFF;stroke-width:1.5;stroke-linecap:round;stroke-linejoin:round;" d="M121.531,317.004
			c0,0-11.379-3.861-11.361-3.912c0,0,7.803,0.588,7.808,0.573c0.01-0.028-7.688-2.624-7.681-2.645c0-0.001,6.308,0.057,6.308,0.057
			c0.006-0.018-6.197-2.082-6.181-2.128c0.009-0.027,5.241-0.297,5.245-0.309c0,0-5.135-1.713-5.118-1.762
			c0.007-0.02,4.401-0.555,4.415-0.595c0.001-0.003-4.296-1.454-4.288-1.477c0,0,4.036-0.713,4.04-0.724
			c0.01-0.029-3.923-1.318-3.913-1.347c0,0,3.713-0.833,3.714-0.836c0.001-0.003-3.587-1.235-3.587-1.235
			c0.003-0.008,3.399-0.945,3.399-0.945s-3.276-1.112-3.272-1.126c0,0,3.077-1.026,3.086-1.053c0.008-0.022-2.965-1.002-2.959-1.019
			c0,0,3.264-0.97,3.271-0.989l-3.144-1.082c0.009-0.026,3.459-0.914,3.462-0.923l-3.335-1.148l3.703-0.84
			c0,0-3.583-1.212-3.576-1.231"/>
		<path style="fill:none;stroke:#FFFFFF;stroke-width:1.5;stroke-linecap:round;stroke-linejoin:round;" d="M125.463,312.425
			c0,0-1.826-0.613-1.822-0.627c0.006-0.018,5.348-0.248,5.356-0.271c0.026-0.076-7.986-2.75-7.986-2.75s11.477,1.876,11.489,1.841
			c0.026-0.077-12.843-4.401-12.837-4.42"/>
		<path style="fill:none;stroke:#FFFFFF;stroke-width:1.5;stroke-linecap:round;stroke-linejoin:round;" d="M124.308,341.946
			c0.006-0.016-10.706-3.686-10.706-3.686s17.085,3.902,17.126,3.782c0,0-21.37-7.354-21.368-7.358"/>
		<path style="fill:none;stroke:#FFFFFF;stroke-width:1.5;stroke-linecap:round;stroke-linejoin:round;" d="M115.443,348.444
			c0.011-0.031-7.287-2.509-7.287-2.509s43.714,13.414,43.861,12.987c0.013-0.037-34.033-11.381-33.929-11.683l37.768,10.889
			c0,0-10.681-3.566-10.646-3.666c0,0,14.454,2.965,14.486,2.873l-12.748-4.39c0.002-0.005,16.588,3.596,16.588,3.596l-17.572-6.051
			c0,0,21.372,5.371,21.411,5.257c0.052-0.152-23.652-8.144-23.652-8.144l27.492,7.351c0.119-0.345-62.297-21.451-62.297-21.451
			l66.137,20.657c0.092-0.268-66.013-22.73-66.013-22.73l69.853,21.937c0,0-69.911-23.483-69.729-24.01
			c0.142-0.411,73.472,23.497,73.569,23.217c0,0-73.567-24.936-73.445-25.289c0.131-0.38,77.057,25.158,77.285,24.496
			l-77.162-26.569c0,0,80.986,25.82,81.001,25.776c0.227-0.66-80.878-27.848-80.878-27.848c0.171-0.496,84.67,27.192,84.717,27.055
			l-84.594-29.128c0.098-0.284,86.007,27.499,86.007,27.499s-85.939-29.411-85.883-29.572c0.184-0.534,85.504,28.239,85.785,27.423
			c0.075-0.218-85.662-29.496-85.662-29.496l85.563,27.347l-85.44-29.419l85.342,27.27c0.134-0.39-68.087-23.444-68.087-23.444
			s67.776,21.912,67.989,21.295c0.069-0.199-64.417-21.568-64.228-22.115l64.13,19.966c0.111-0.324-62.144-20.815-61.965-21.336
			c0,0,61.76,19.496,61.866,19.187c0,0-60.505-20.363-60.36-20.784c0.183-0.532,60.25,18.67,60.262,18.635
			c0,0-59.388-20.009-59.253-20.402c0.115-0.335,59.022,18.637,59.154,18.253c0.138-0.402-59.116-20.195-59.066-20.338
			c0,0,58.905,18.371,58.968,18.189c0,0-75.855-25.946-75.801-26.101c0,0,75.659,24.079,75.703,23.951
			c0.249-0.723-76.295-26.015-76.216-26.243c0,0,76.063,24.253,76.118,24.094c0.127-0.368-76.39-26.303-76.39-26.303
			s76.257,24.253,76.291,24.154c0.068-0.198-76.411-26.311-76.411-26.311c0.041-0.12,76.313,24.161,76.313,24.161
			s-76.512-25.525-76.26-26.258c0,0,76.134,24.19,76.162,24.109c0.008-0.024-76.18-25.502-75.956-26.154
			c0.013-0.038,75.857,24.005,75.857,24.005l-82.474-28.398c0.212-0.617,82.376,26.249,82.376,26.249s-79.525-26.716-79.32-27.312
			c0.187-0.542,79.221,25.163,79.221,25.163l-77.942-26.838c0.125-0.364,77.844,24.689,77.844,24.689
			c0.081-0.235-76.212-26.242-76.212-26.242l76.113,24.093c0.13-0.377-74.024-25.489-74.024-25.489l73.926,23.339
			c0.017-0.049-72.036-24.156-71.837-24.735c0,0,71.699,22.702,71.738,22.586l-67.917-23.386l67.818,21.237
			c0.098-0.284-62.799-21.01-62.61-21.558c0,0,62.373,19.811,62.512,19.409c0.174-0.505-56.897-19.363-56.827-19.567
			c0.078-0.227,56.6,17.792,56.729,17.418l-51.119-17.602c0.108-0.315,51.021,15.453,51.021,15.453
			c0.077-0.224-46.35-15.476-46.201-15.908c0.046-0.133,46.079,13.826,46.103,13.759l-42.612-14.672l42.514,12.523
			c0.126-0.364-40.134-13.779-40.121-13.815l40.023,11.666c0.288-0.836-100.395-34.569-100.395-34.569s99.96,33.397,100.296,32.42
			c0.047-0.136-71.634-24.274-71.513-24.624c0.061-0.178,71.415,22.475,71.415,22.475s-61.58-20.836-61.467-21.165l61.368,19.016
			c0.163-0.473-54.22-18.67-54.22-18.67l54.122,16.52c0.145-0.421-48.529-16.71-48.529-16.71
			c0.099-0.286,49.094,14.792,49.095,14.79l-39.921-13.746c0.058-0.168,46.076,14.195,46.212,13.797
			c0.006-0.019-44.14-14.879-44.042-15.165l50.333,15.216c0.159-0.462-50.1-17.251-50.1-17.251
			c0.183-0.533,54.692,17.054,54.796,16.752c0,0-54.786-18.823-54.773-18.86c0.075-0.219,54.69,16.954,54.763,16.741
			c0.006-0.018-81.367-28.017-81.367-28.017c0.104-0.301,81.187,26.392,81.357,25.898c0.021-0.061-72.516-24.969-72.516-24.969
			c0.032-0.092,72.506,22.851,72.506,22.851s-67.412-22.639-67.236-23.151c0.064-0.186,66.999,21.691,67.226,21.032l-57.055-19.646
			c0.088-0.257,57.045,17.527,57.045,17.527s-54.817-18.518-54.708-18.837c0.091-0.265,54.698,16.719,54.698,16.719
			s-54.529-18.712-54.51-18.769l54.5,16.651l-54.957-18.923l54.947,16.805c0.005-0.016-63.882-21.996-63.882-21.996
			s63.79,20.116,63.872,19.878c0.198-0.575-60.354-20.782-60.354-20.782c0.052-0.15,60.295,18.806,60.345,18.663
			c0,0-57.294-19.118-57.106-19.663c0,0,59.071,18.819,59.254,18.288l-57.878-19.929c0.162-0.47,54.15,16.53,54.15,16.53
			l-85.401-29.406l80.672,25.662c0.011-0.032-7.867-2.709-7.867-2.709"/>
	</g>
</g>
<path style="fill:#FFFFFF;" d="M161.902,351.034l-43.667-12.667l4.333-70.667h-15l-4.333-1l-0.667-24.333l-2-2.333l13.333-8.667h9
	l-0.375-1.292l4.625-3.75l28.5-55.875l2-1.333l16.542-6.542l3.375,1.625l21.833,62.333l5.417,8.417l-2.5,0.75l-0.083,1.083
	l8.833,0.5l12,9.5l-2.583,1l0.042,22.292l-17.875-0.208l3.25,72.083L161.902,351.034z M122.402,279.201l1.25,1.25l3.25-4.25l6-4
	l7-0.5l9-0.25l7-0.25l5.75-1.5l3-2.25l-21.5,0.5h-14.25h-6.375l-0.51,8.333L122.402,279.201z M118.351,336.456l4.802,1.995
	l5.25,0.75l8.75,3.5l7.75,1.5l7.25,2.25h5.5l-2-5l-3-3l-9.5-4.5l-3.75,0.25l-6.25-0.25l-9.25-3.5l-5.02-3.542L118.351,336.456z
	 M126.902,233.701l3.5-0.25l9.5-0.5l8.5,0.75l6.25-2.75l5-1.25l5-1.5v-2.5h-4.25l-6.75,1.25l-10.75,1.75l-16.5,3l-3.5-0.375
	L126.902,233.701z M127.402,253.201l5.667,0.5l5.667,0.667l5.333,1l12.333-0.417l8.25,1.375l1-2l0.083-4.625l-13,1.333l-11,0.5
	l-15.333,0.667L127.402,253.201z M138.069,239.284h1.667l4.167,0.167l2.833,0.833l7.333-0.417l6,0.75l4,0.833l1.75-1.5l0.167-3.667
	l-0.667-0.667l-9.167,1l-8.083,0.583l-6.667,0.833l-4.833,0.75L138.069,239.284z M137.455,304.368l-2.833,0.167l-2.667-2.167
	l-2.167-4.083l-1.417-6.333l-0.25-4.5l0.333-3.167l-1.333-1.917l-1.75,1.167l-0.417,2.25l-0.583,3.75l0.333,3.917l0.417,4.583
	l1.167,3.917l1.667,3.417l2.5,2.75l2.667,1.75l3.667,0.75h2.417l2.833-1.167l2.25-1.75l1.5-2.333l0.333-2l-0.583-0.917l-3.167,0.25
	l-2.167,0.417L137.455,304.368z"/>
</svg>
